<?xml version="1.0" encoding="utf-8"?>
<!-- Generator: Adobe Illustrator 24.3.0, SVG Export Plug-In . SVG Version: 6.00 Build 0)  -->
<svg version="1.1" id="Layer_1" xmlns="http://www.w3.org/2000/svg" xmlns:xlink="http://www.w3.org/1999/xlink" x="0px" y="0px"
	 viewBox="0 0 2267.7 2267.7" style="enable-background:new 0 0 2267.7 2267.7;" xml:space="preserve">
<style type="text/css">
	.st0{fill:#B1D856;}
</style>
<g>
	<path class="st0" d="M1933.7,1469.9c21.2,60.7-32.8,82.1-58.7,114.9c25.8,14,55.1,24.6,67.9,51.3c-14.4,5.5-21.1,14.6-33.9,15.1
		c-25.4,1-41.5-27-68-27.1c-3.6,10.5-9.3,18.9-18.5,24.1c1.7,39.9-20.7,56.2-64.7,51.5c-0.4-7.5-0.6-14.6,3-18.2
		c-6.6,0.3-27.2-0.6-33.9-9.2c-38,6.7-65.7-11.8-83.3-15.1c-9.2,4.4,4,11.8,0,21.2c-6.1,8.3-18,10.7-18.6,24.2
		c-27.7,0.4-47.1-7.7-67.9-6c-8-15.1,7.4-25,0-42.3c5.5-10.8,18.4-14.2,24.6-24.3c-13.1-22.4-58.8-13-74.1-33.2
		c6.3-11,24.7-10.1,40.2-12c3.5-3.6,3.5-10.7,3-18.2c39.3-31.7,110.5-57.4,185.3-48.4c35.8,4.3,65.1,26.2,89.5,39.5
		C1850.3,1517.3,1877.8,1479.6,1933.7,1469.9z M1834.9,1618.1c4.9-0.3,10.7,0.3,9.3-6.1c-2.1,0-4.1,0-6.1,0
		C1838,1615,1835.5,1615.6,1834.9,1618.1z M1844.1,1557.7c-5.8-0.7-6.7,3.3-12.3,2.9c2.6,7.6-10.2,21.8-3,15.1
		C1834,1569.8,1842,1566.5,1844.1,1557.7z M1578.6,1615c-1.5,6.8,7.8,18.1,12.4,9.1C1584.7,1623.3,1584.9,1615.9,1578.6,1615z
		 M1870.9,1393.9c-3.2-7.2-9.4,7.3-11.2,1.4c-22.7-73.4-116.7-63.7-191.4-61.1c-1.1,0-5.2-20.8-11.4-23.6c-4.5-1.9,22.4-57-6.5-48.3
		c-28.8,8.8-19.3,42.8-25.7,42.3c-6.3-0.1-22.2,15.7-27.4,21c-18.7,19.2-15.2,21.3-14.2,34.7c0.9,13.6,25.9,13.3,23.4,21.6
		c-2.6,9,13.4,26.4,28.3,36.9c13.2,9.1,25.3,11.3,23.8,17.5c-3.1,13.3-27.7,16-16.1,24.2c11.5,8.2,19.7,4.7,32.7-0.2
		c12.9-4.8,22-28.8,27.1-23.1c5,5.6,58.2-4.8,55.1-2.7c-11.9,8.4-10.3,12.2,2.4,14c13,2,63.1-9.1,89.2-16.3
		C1856.2,1430.2,1874.1,1401.1,1870.9,1393.9z M968.9,1991.6c-22.7,10.5-44.5,36.7-72.6,36.4c-2.8,10.9-0.5,23.8-12.6,31.4
		c-2.2,5.1,3.9,13.3-5.1,16c-8-12.8-8.4-29.6-7.1-41.7c-20.1-3.5-45.3,1-65.6,4.9c-10.9,7.8-11.4,18.7-26.8,23.4
		c-5.5,1.7-11.3,0.3-17.3,0c-3.5-0.1-15.5-2-15.8-1.9c-3.7,1.7-3.5,10.3-6,14c-8.3,13.2-28,24-43.2,25.3c-4.5,0.4-8.2-2.8-13.1-0.9
		c-8.4,3.4-9.5,12.8-15.5,18.4c-8.9-23.9-5.6-49.8,22-62.9c4.2-8.1,9.5-15.7,4.6-26.9c-10.2-1.7-11,10.2-16.4,16.3
		c-12.4,14.2-30,24-51.3,27.9c-1.9-3.9-6.3-1.3-9.7-1.2c-6.5-3.5-12.8-7.9-19.2-11.6c-8.2,1.5-16.2,2.8-22.9,0.3
		c-1.5-5.5,4-7.2,7.3-11.3c8.8-10.8,15.6-30.4,37.8-31.7c5.4,1.8,7.9,6.2,13.4,4c11.7-4.9,0.1-18.8,4.8-31.5
		c3-8.2,8.6-7.5,11.5-14.2c10.9-3.3,19.1,0.8,27.9,3.1c-8.9-14.7-34.4-3.3-46.7-16c-18.9,11.7-6.5,34.6-26.5,45.8
		c0.1-29.6-5.3-70.5,30.9-82.7c11.2-3.7,33.2,0,44.1,5.8c5.6,3.1,8.4,11.4,15.6,11c-0.9-8-7.2-13.4-14.5-18.2
		c-18.9,7.3-44.5-10.2-32.7-30.2c4.5,2.1,3.9,6.6,7.7,8.9c11.1,6.8,21.9-5.1,36.7-7.7c12.6-2.3,18.3,5.2,27.5,4.4
		c9.6,11.7,18.4,13.2,23.9,26.4c6.2,14.9-5.4,33,8,43.6c29.5,4.9,55-23.2,84-31.4c16.4-4.6,30.3-2.6,45.4-3.6c1.3-2.4-2.8-6.7-2-9.2
		c2.9-7.4,2.7-16,7.6-22.7c0.9-4.1-4.6-10.2,3.6-11.7c1.5,12.1,16,35.4,11.2,47.8c16.2,2.8,30.4,11,47.8,11
		c-0.7,13,12.4,19.5,22.3,18C972,1975.2,973.9,1984.6,968.9,1991.6z M776.6,2022.6c-11.1-14.5-25.9-19.2-44.4-13.7
		c11.3,11.1,16.7,20.6,18.5,36.7C763.4,2039.1,762.9,2026.7,776.6,2022.6z M89.8,1018.9c-3.7-0.6-3.7-2.9-7.1-4.4
		c-3.3,3.4-0.5,10.1-0.2,14.3c-1.2,1.9-4,1.7-5.4,3.2c1,13.6-11.3,18-15.7,28.3c3.3,2.9,7.2-2.4,9.2,2.2
		c-3.9,9.8-12.9,12.6-19.9,17.9c-8.1,2.1-18.7,4.1-18.6,15.2c4.6,1.9,9.7,1.2,11.8,5.1c11.3-3.3,17.4-14.2,29.9-16.1
		c2.8-4.2,8.1-3.8,12.4-4.9c13-3.3,17.7-11.7,27-19.7c1.8,1.2,2.2,3.2,1.3,6.2c-1.4,1.3-3.2,1.9-4.9,2.8
		c-12.6,18.5-35,22.8-47.4,41.6c0.4,1.7,3.6,1.3,3.9,1.9c-7.2,5.2-12.5,13.4-14.4,24.3c0.4,2.3,3,3.2,4.7,4.5
		c-2.1,3.6,0,6.9-0.2,10.7c3.3,3.7,10,5.4,12.8,9.5c-2.5,18.4,4.2,30.8,18.5,37.8c-2.1,5.2-9.5,8.2-7.2,14.9c3.9,1.1,6.5,3,9.5,4.7
		c2.6-6.1,4.1-11.2,8.9-15.2c0.4,3.3,1.5,6.2,1.3,9.9c1.4,1.6,5.2,1.4,5.4,3.9c-0.6,2.6-2.2,3.8-2.9,6.1c4.2,3.8,7.3,9.9,2.9,16.6
		c3,0.3,4.9,1.3,5.4,3.3c0.3,3.6-1.7,4-2.1,8.1c0.4,2.7,4.6,2.8,4.3,6.1c-0.4,3.8-4.2,2.9-4.4,7.1c4.6-0.1,4.4,3.1,5.2,5.6
		c-1.9,2.2-4.4,3.7-6.5,5.4c0.9,2.8,2.4,7-0.2,10.8c-2.1-0.8-3,0-4.3,0.3c-0.9,2.9,1.2,3.6,0,6.7c-5,2.3-8.1,10.7-15.9,6.6
		c-2,3.8-7.1,6.3-11.5,2.8c-1.4,1.1-3.1,2.1-5.3,2.6c-1.9-2.5-6.7-2.4-9.8-2.5c-1.6-2.1-0.9-5.8-1.5-8.7c2.6,0.3,3.4-2,5.8-1.8
		c1.6,1.7,0.9,5.1,3.7,6.1c5.4-1.3,4.5-7.6,5.4-12.8c-3.5-1.2-3.7-3.2-5.9-4c-24.6-9.7-33,34.9-5.9,37.7c5.9,0.6,11.8-3.7,16.8,1.3
		c0.2-0.4,0.6-0.5,1.2-0.4c2.3-1.4-0.8-3.1,0.8-4.1c3.8,1.5,4.5,1.8,7.3,3.8c2.7-0.8,2.1-6.4,5.9-5.5c2.4,0,0.2,3.2,2.4,3.3
		c0.2,1.3,2.6-0.6,3.7-0.4c-0.4-4,0.9-7.5,5-6.9c2.5,0.2,0.6,3.4,3.7,3c3.7-1.4,3-9.4,7.9-9.2c2.8,0.4,2.4,3.5,5.7,2.1
		c0.6-4.3,0-14.3,8.8-11c1.9-4.3-2.3-4.5-2.3-7.5c2.4-2.7,0.9-7.9,3.1-10.1c1.9-1.9,3,0.7,4.6-1.6c-3.3-3.2-3.7-9.3,0.6-12.6
		c1.8,1.4,3.5,0.9,4.4-0.9c-5-2.6-4.7-9.7-1.4-15.2c2.1-0.4,4.7,0,5.4-2.6c-5.6,0-6.1-5.9-2.9-10.7c-0.3-1.7-2.4-2.2-3-3.6
		c0.2-3.7,1.7-5.9,3.2-7.6c-4.6-3.8-1-9.4,0.9-14.9c-2-0.4-3.9-0.9-4.3-2.6c0.7-4.6,0.2-8.9,1.7-11.5c-6.3-0.9-11.1-8.5-5.6-15.3
		c-6.2-0.6-11.4-10.1-3.9-12.1c3.2,6.9,8.7,12.5,16.5,16.2c7.3-12.3,9.1-35.8,12.2-48.5c-9.1-2.4-22.3-0.5-28.4,1.5
		c0.7-2.5,2-4.1,3.9-4.6c2.1,0.5,2.6,1.3,4.7,0.7c-0.2-4.2,2.8-9.9,9.5-8.4c1.4-1,1.2-4,1.7-6.1c7.2-1.2,11.4-2.8,9.6-12.1
		c1.9-2.2,5.8-1.6,7-4.7c-1-1.1-2-2.1-1-4.4c1.1-2.5,3.7-3.1,5.7-4.3c-2.9-3.8-2.9-8.6,0-13.8c-0.3-2.3-3.5-2.6-3.9-4.9
		c0.6-3.6,1.4-7.2,2.1-11c-3.7-3.1-8.8-5.4-6.7-12.5c-8-0.3-8.4-5.6-9.6-10.7c-8.4,0.9-11.1-6.4-16.2-4.6c-2.1-4.6-6.3-7.9-10-11.5
		c-3.2,5.1-10.9,2.4-13-2.3c-3.6,1.5-6.3,1.2-11.3,1.5C101.9,1013.4,95.5,1019.9,89.8,1018.9z M315.9,1131.5c-2.6-0.9-5.4-0.3-8.3-1
		c-12.6-2.7-27.2-4.8-34.7,4.9c6.4,6.5,19.3,11,16,23.7c-10.4-2.6-21.8-4.1-30.9-1c-1.5,1.4,2.8,3.9,1.1,5.4
		c-12.4,1.8-24.6,3.9-33,9.7c-1.1,15,1.8,29.4,6.1,41c-22.5,4.5-24.9-15.1-43.6-16.2c-0.9,3.1-3.6,1-6.1,2.2c-1.4,1.9,0,4.8,0,7
		c-6.7-0.4-3.5,6.7-2.7,10.3c-1.1-1.4-2.6-1.1-2.7,1c-2.3,18.1,9.5,33.6,28.7,35.7c16.6,1.7,28.4-5.8,40.2-10.9
		c12.3,19.1,29.3,34.4,48.5,47c15.1,10,32.4,17.9,52.3,22.1c-0.5,5,6.1,9.7,5.4,15.2c-0.4,3.4-5.4,6.6-7.1,7.5
		c-8,4.4-16.6,5.1-23.2,9.3c-7.6,4.6-17,11.6-22.6,17.8c-7.2,8.1-10.1,16.4-17.1,22.7c-4.2,3.7-12.3,5.4-16.5,7.6
		c0.7,11.6,11.3,17.7,22,16.7c7.1-0.6,14.5-6.2,21.6-9.7c7.6-3.7,15.1-6.6,21.5-9.6c6.7-3.3,12.7-8,19.3-12
		c20.4-12.1,39.4-28.2,40.2-57.7c17.5-1,31.2-10.5,39.1-22.7c14.1,3.2,25.2,11.8,37.6,15c17.7,5,35-5.3,49.6-4.3
		c4.4-6.2-1.1-10.3-4.5-13.4c-6-5.6-13.4-13.5-22.6-14.6c-10.5-1.3-21,1-28.6-3.1c-1.8-1-10.9-8.2-11-8.7c0-0.3,2.2-1.6,2.2-1.6
		c7.3-9.3,10.3-20.7,6-32.4c19.7-0.1,35.5-7.8,36.4-23.8c0.7-11.7-4.4-22.3-11-31.4c-8.3-11.4-14.7-24.5-29.2-26.5
		c-3.9,7.7-1.3,17.8,1.1,25.9c2.3,8.7,6.1,17.6,3.4,26.6c-5.4-1.2-12.2-1.2-18.3-0.5c-7.3-8.7-19-12.9-27.6-20.5
		c-15.9-5.4-28.2-19.2-47.3-17.8c-9.3-5.5-17-12.3-32.1-11.9C331,1143.9,325.7,1135.1,315.9,1131.5z M514.4,308.9
		c-5.5,3.3-12.8,5.1-19,8.4c-8.9,4.8-17.8,10.7-28.2,15.8c-8.9,4.5-18.7,8.8-28.1,13.7c-23.3,12.3-49.3,26.2-69.2,42.2
		c-14.3,11.6-27.8,19.8-38.7,33.2c-12.6,15.5-24.5,35.1-25.9,50c-2.2,22.4,22.3,46.2,43.9,35.7c13.2-6.5,22-28.2,12.3-36.7
		c-6.3-5.5-24.2-2.3-19.6,9.9c2.6-0.7,5.4-3.5,7.8-0.3c0.2,10.4-12.2,13.8-18.5,6c-7.3-9.2,3.4-29.1,14.2-40.2
		c19.4-20.3,41.1-29.2,60.2-39.1c6.1-3,11-7.2,16.5-10c15.7-8.2,34.4-13.4,49.5-19.5c22.3-9.1,49.3-19.8,69.9-17.3
		c4.7,4.5,15.3,5.5,19.8,12.4c-0.9,20.3-7.6,40.2,6.5,60.9c1.2,5.1,4,14.8,10.7,16.8c2.8-2.5,0.3-5.2,4-7.5c5.4,1,3.3,8.2,7.5,7.8
		c5.8-1.4,0-9.6,2.6-11c2.6,3,2.3,6.1,6.5,6.8c2-1.7,1.3-3.6,1.8-5.4c1.9,2.8,4,2.4,6.2,1.1c1-16.9,3.9-38-11.6-52.3
		c3.4-5.9,2.5-13,5.5-19.7c2-4.3,5.2-7.2,6.1-11.6c2.4-11.3-4.6-25.7,13.5-26.9c4.9,6.5,14,4.8,21.5,10c8,5.5,10.9,15.4,17.9,19.9
		c2.8,1.7,9.5,4.2,13,4.1c2.1,0,5-2.8,7.8-3.1c7.1-1.5,14.9-3.5,23.2-6.4c-2.2-4.3,7.6-5.6,1.9-10.6c2.1-0.4,5.8,0.5,6.4-2.9
		c-13.8-20.3-36-10.1-50-26.3c20.5-6.6,41.2-16.6,62.1-31.8c7.3,5.2,14.6,5.2,22,7.5c-1.8,8.5-8.4,16.9-4.7,25.7
		c3,1.3,6.2-5.2,9.1-5.3c-1.4,3.2-3.9,6.4-1.9,9.7c1.8,1.3,3.8-0.2,5.8-2.3c0.2,2.5-0.2,5.1,3.3,7.8c17.1-11.3,23-30.3,26.2-45.4
		c-6.1-13.6-21-12.2-25.7-22.8c6.5-6.5,12.9-11,19.3-15.6c28.7,3.6,57.4,11.6,86.7,1.7c5.8,7.7,14.6,10.6,20.6,18.5
		c5.4,7.4,5,20.3,17,19.1c3.5-2.3,1.9-7.5,3.4-8.1c2.6,2.4,3.2,6.2,6.4,6c3.2-3.8,1.1-7.6,0.4-11.3c3.3,2.8,2,7.7,6.5,9
		c12.4-14.9-7.7-36.4-22.4-52.3c-23.9-8.2-48.2-7.8-72.3-9.8c3-5.1,10.4-9.9,15.1-14.8c18.2-5.8,45-29,52.2-46.4
		c1.2-3,0.5-7.2,2.5-10.1c2.3-3.5,6.7-5.6,9.6-8.8c12.4-13,21.3-27.6,23-41.3c0.9-7.5,0.6-18.2-6.9-24.1c-4.5,3.2-1.7,6.8-2.5,11
		c-2.4,15.9-18.7,28.3-34.9,43.5c-5.5-0.9-12.7,4.2-16.9,6.5c11.6-19.4,31.3-37.6,43.2-55.9c-4.8-3-8.5,3-11.1,5.2
		c-17.5,15.3-31.4,27.9-51.3,35.9c-14.1-8.5-23.2,5.9-32.2,13.6c-5.5,4.6-19.1,9.4-26.5,13.3c-2.7,1.3-5,3.7-6.9,4.2
		c-2.5,0.7-6.2-1.6-8.8-0.7c-10.5,3-16.9,16.6-28.2,15.7c-5-4.2-10.3-0.6-15.4-2.6c-10.8,16.3-22.7,9.8-34.7,20.5
		c-7.3,1.2-17.2,0.7-21.7,11c-10.9-4.2-16.9,9.1-25.5,14.3c-3.9,2.5-10.6,1.2-14.3,4c-4.3,3.5-5.2,9.6-9.3,12.3
		c-4,2.9-10,0.6-14.7,3.6c-4.6,2.9-7.8,10.7-14.6,15.3c-5.1,3.3-11.6,4.6-15,8.5c-2.6,3.3-2.9,8.2-3.9,11.6
		c-11.4,1.2-23.1,14.7-24.9,24.5C537.4,287.4,527.7,300.6,514.4,308.9z M1631,1925.2c-5.7-1.1-19.7-1.6-24,4.5
		c4.3,4.2,16-2.2,22.4,1.1c-7.6,3.4-29.3,3.8-22.8,14.7c6.1-2.2,8.4-6.5,15.3-8.2c5.6-1.6,10.8,0.8,16.9,0
		c4.3-0.3,13.2-2.2,17.4-3.6c18-5,33-16.7,36.7-31.6c-0.4-3.6-2.7-8.1-2.5-9.8c21,7.2,43.5,11.9,72.6,5.6
		c-1.5,5.1-9.4,12.4-7.9,19.4c1.2,5.3,17.3,14.6,22.7,16.8c5.4,2,12,1.6,16,2.6c-2,1.3-10.3,1.3-9.1,6.1c6.9,0.4,13.5-2.4,21.9-0.9
		c-8.1,3.3-28.1,2.1-27,13.5c8.4-1.5,17.3-8.2,27.8-7.8c-14.7,5.2-38,13.2-34.5,28.9c7.8-6.2,14.6-18.1,29.3-22.4
		c-10.8,8.8-28.1,17.1-25.3,31.8c5.8-0.7,5.8-6.7,8.8-10.4c8.1-10.1,25.9-19,40.6-25.8c-2.1,3.6-10.7,22,2,25
		c1.5-3.9-1.9-7-1.9-10.1c-0.2-11,18.1-25.9,22.1-35.4c5.9-14.7-28.4-20.2-40.2-19.1c11.5-8.1,17.9-19,23.4-30.7
		c28.6,2.1,63.9,5.5,93.8-9.2c20.4-7.7,54.7-25.7,66.4-41.5c13.5-18.6,25.4-40.1,16.9-66.4c-5.2-16.1-15.6-28.3-28.7-33.9
		c-5-2.2-17.4-5.7-24.9-4.9c-20.6,1.7-40.8,19.4-33.6,35.4c1.3,2.8,3.2,5.8,8.1,4.6c1.3-5.4-4.2-5.9-3.8-11.7
		c0.3-7.1,11-14.3,20.4-15.7c16-2.3,33.7,6.8,40.2,16.8c7.8,11.9,8.8,29.2,4.9,39.2c-5.6,14.5-24.4,28.2-43.6,38
		c-32.1,16.2-60.3,2.7-93.8,9.2c2.6-7.1,6.6-21.6,17.6-26.2c6.5-2.6,10.9,0.9,15.2-3.1c-5.2-6.8-21.4-1-27.2,3.9
		c1.3-6.5,2.5-12.6,6.9-17.5c2.8-3.3,11.5-5.1,8.4-11.9c-13.2,2.6-18.6,14.7-19.9,26c-2.7-5.1,1.7-11.3,0.7-17.5
		c-11,3-3.7,16.6-7.6,23.6c-5.2-3.1-0.2-10.3-0.8-14.9c-1.8,0.8-2.5-0.4-3.4-1.2c-5.4,3.9-0.1,13.4-6.7,15.1
		c2.8,4.5,1.5,6.7,3.1,11.8c-12.4-11.2-18.9-32.5-43.1-24.2c-5.4,6.1-10.4,12.6-7.5,23.6c-23.8-9.3-50.6-22.4-85.9-15.9
		c-0.6-5.8-2.4-9.3-5.7-12.8c-12.7-3.3-27.6,6.1-34.8,13.4c-9.3-3.4-19.4-5.4-31.6-4c-8.4-13.9-22.5-18.8-38.5-21.9
		c-5.9-1.2-12,0.3-17.1-0.9c-3.6-1.1-7.4-5.6-12.2-5.9c-8-0.6-17.8,4.5-16.4,13c-22.6,7.5-22.1,29.8-3.9,40.7
		c13,7.7,42.8,14.7,59.5,14.3c6.6,8.7,8.9,16.8,17.3,22.4c5.5,3.8,13.1,3.4,17.9,6.9c5.6,4,8.1,11.1,13.9,15.1
		c5.9,4.1,11.6,5.2,17.1,10c-8.7,3.5-17.2,7.1-20.9,13.4c-3,0.6-3-3.6-7.2-1.1c-1.5,2.6,3.9,3.6,2.4,6.2c-4.7-2.1-6.4-9-13.3-7.3
		c-2.5,1.6-2.3,2.9-0.9,5.5c-3.2-0.3-8.5-2.8-9.5,1.6C1621.5,1924.6,1628.6,1921,1631,1925.2z M1634.5,1918.3c-1.4,0-3.1,0.4-4-0.6
		c-0.2,2.4,5.4,3.2,7,5.8C1639.1,1924.6,1635.1,1919.9,1634.5,1918.3z M235.1,908.2c15.4-1.8,27.3,1.9,34,12.6
		c-31.6,16.4-76.5,30.5-114.7,19.2c-44.7-24.7-30.2-114.2,32.4-100c3.3,1.6,6.9,6.6,11.1,4.5c1.1-3.8-3.3-7.8-6.5-9.5
		c-23.3-12.1-57.3,6.6-67.7,22.8c-8,17.1-13.9,34.6-8.6,58.6c5,23,22.1,35.8,34.3,48c5-0.6,7.9,3.5,11.9,5c19.6,7.4,49.2,7.1,76,5
		c35.1-3.1,59-21.6,85.9-27.4c7.9,6.5,17,11.4,28.9,13.1c-13.5,6.5-32.6,15.9-32.9,29.3c-0.3,9.7,7.5,9.9,13,13
		c5.6,3.3,15.6,10.5,17.2,16.2c1.1,3.9-1.4,9.5,1.5,11.5c4.1,0.3,4.4-2.3,7.1-3c2.9-10.9-5.7-14.6-9-22.5
		c15.1,3.7,39.8,4.3,51.2,11.8c3.4,2.3,3.8,8.8,9.3,6.9c-1-8.1-9.1-14.3-15.8-16.3c-2.8-1.1-8.2,0.7-9.4-3.4
		c9.4-5.8,17.5,3.4,25.4,4.9c-1.1-11.7-20.9-11.7-29.4-11.7c6.3-3.8,10.1,0.2,14.5-3.3c-2.8-5.4-11.5-1.9-16.1-3.1
		c1.1-0.9,1.5-2.3,0.9-4.6c-3.8-1.4-9.7,0-13.7-1.2c9.2-5.1,23.6-11.6,30.5-19.5c2.2-2.3,6-7.4,6.1-10.3c0.9-11.9-14.1-16-19.4-21.8
		c36.2-1.2,62.1-18.4,75.7-36.3c-1.7,15.2,9.2,17.2,16.3,21.4c6.1,3.4,11.7,9.8,16.7,11.8c8.5,3.7,16.4,0.1,26-1.8
		c13.8-2.9,27.7-4.8,41-3.2c-1.4-9.4-12.9-6.1-20-8.4c4.2-1.7,10.8-1.6,14.7-3.4c-3.8-5.8-11.5-5.6-19.1-2.6c0.3-3,6.3-1.7,4.3-6.5
		c-4.1-3.2-6.9,3-11.5,3.8c0.2-3.9-2.8-3.8-4.4-5.3c-6.1,0.9-5.2,6.9-10.1,8.6c-9.5-3.9-17.8-9.5-28.7-11.7c8.1-9.4,11.9-22,14-35.7
		c13.7-7.6,17.4-22.6,20.5-38.1c18.7-7.9,55.2-27.7,53-52.6c-1.5-17-9.2-12.7-20-19.5c-3.3-2.2-4.6-7.2-9.3-7.7
		c-11.7-1.3-16.2,8.7-22.4,12.5c-3.2,1.8-7.1,2-10.1,3.5c-8.5,4.6-13.5,11.6-20.4,16c-5.4,5.9-3,15.8-9.1,21.8
		c-4.4,4.4-13.3,4.9-20.6,8.5c-5.6,2.8-10.1,7.4-14,8.4c-11.3,3.2-24.9-0.3-30.2,10.6c-1.1,2.6,2.7,4.7,3.3,7.6
		c-33.1,6.9-63.2,21.5-82.4,40.8c-1.3-6.6-3.5-12.5-7.5-15.9c-24.1,4.6-31.7,21.8-43.3,35.9c-0.5-2.5,0.2-6.3-3-5.5
		c-2.5-2.9-3.7,4.1-5,2c-2.6-5.7-2.8-14.4-9.6-14.9c-0.4,4.6,7.3,13.8,3.5,20.3c-3.4-12.7-9.5-26.3-20.8-26
		c0.5,8.2,12.8,13.2,12.8,21.8c-6.9-9-18.4-21.2-32.2-15.7c1.4,5.3,7.2,2.9,10.3,4c10.4,3.3,15,15.7,21.9,23.6
		C256.9,902.1,240,900.6,235.1,908.2z M367.3,990.4c0,0.7,7.3,2.3,9-1.2C373,990.3,368,987.5,367.3,990.4z M1629.8,440.9
		c12.2,0.8,20.6,3.6,32.6,4.9c1.6,3.1,3.4,6.1,5.6,8.4c1.1-0.9-1.3-2.2-0.3-2.9c3.5,2.6,4.7,7.5,9,9.4c-2.1-3.8-5.5-6.5-7.3-10.7
		c6.5,6.3,11.2,14.6,17.9,20.8c0.4-0.1,0.2-1.3,0.6-1.3c8.4,10,19.9,16.9,30.2,25c0.2-0.4-0.1-1.2,0.4-1.3
		c10.7,6.1,24.6,12.4,38.4,14.8c1.6,0.3,3.6,0.7,4.7-0.5c-2.8-1.6-4.4-2.2-7-3.9c-5.2-3.6-10.7-9.6-14.6-14.3
		c-3.2-3.9-6.7-7.8-8.9-12c-3.1-5.6-6-12.7-7.6-19c-2.4-8.9-1.1-18.8-0.7-27.1c0.2-6.6,0.6-11.6-2.4-16.2c-0.7-0.9-3.4,0.2-4.1-0.7
		c10.8-3.6,14.4,9,21,14.3c2.8,2.3,5.1,4,8.2,6.5c2.4,1.7,6.8,5.6,9.3,5.5c4.8-0.2,7.9-9.7,9.6-14.3c5.3-14.7,4.4-39.4-1.9-51.6
		c-7.2-0.7-14.4,3.1-21,6.6c-6.5,3.5-10.8,7.8-15.2,10.7c-3.5,2.2-6.1,1.9-7.6-1.6c1.7,0,2.7-0.5,4.2,0c2-2.5,1.7-6.4,1.3-10.7
		c-0.5-7.2-2.1-14.9-2.6-22.9c-0.9-12.7,0.2-26.1,1-37c0.4-0.5,0.4-1.3,0.9-1.6c-0.9-3.2,1.3-5.2,0.3-7.8c0.5-0.9,1-1.4,1.4-2.6
		c2.9-9.6,7.1-17.9,15.2-22.9c0.4-0.4,0.2-1.6,0.6-2c10.2-7.5,23.6-14.6,41.8-13.6c1.7,0.1,2.8,1.2,4.3,0c-1-1.5-2.8-1.5-4.3-1.6
		c-7.1-0.7-15.2-1.7-23.1-1.7c-17.2,0-34.1,2-47.1,5.5c-2.1,0.7-4.6,0.9-7.1,1.5c-26.8,6.2-48.4,16.8-64.5,31.5
		c-5.4,4.9-8.7,11.6-13.9,17.2c-4.2,4.2-9.6,7.7-12.7,13c-0.9,0.3-1.4,0.9-2.3,1.2c-11.6,17.9-24.8,34.5-31.8,56.8
		c0.4,2.2,2.6,2.5,2.9,4.6c-0.6,0.6-2.4,0.3-3.5,0.3c0.6,9.2,5.5,12.7,9.5,18.5c1.8,2.7,2.6,4,4.5,5.9c1.5,1.3,2.5,3.5,4,4.9
		c0.5,0.3,1.5,0.3,2,0.6c2.6,1.9,4.6,4.7,6.6,6.5c3.2,2.5,7.4,3.9,8.7,5.9c0.9,1.4,0.5,2.8,0.9,5.1c0.7,3.2,2.1,7.1,2.4,9.2
		c0.9,5.9,0.3,9,2.6,14c0.2,0.6-0.5,1-0.2,2c1.6,5.2,2.6,12.6,4.3,17.5c0.4,1.4,0.9,3.9,2.5,4.2c-1-4.5-3.8-9.1-3.3-14
		c2.6,6,4.4,12.5,6.3,19.2c1,0.7,1.6-0.4,2.6,0.3c2.3,3.4,3.7,7.1,5.6,10.7c1.9,3.6,3.4,7.5,6,10.4c1-1.7-1.3-3.6-1.7-5.5
		c-1.5-6.3-2.8-13.8-3.3-21.4c-0.9-0.8-1.5-0.1-2.3-1c0.4-0.5,0.4-1.1,0-1.6c-1.9-3.1-4.8-6.6-7-10.7c-2.4-4.4-6.6-12.4-5.6-17.3
		c5,10.7,9.9,24.2,18.6,32.5c0.1-1.7-1.7-3.4-2.6-4.8c-3.6-4.8-7.4-10.3-8.7-16c7.3,10.3,13.6,21.3,21.9,30.5
		c5.6,0.8,8.5,4.2,13.2,5.9c2,1.6,4.9,5.2,8,3.9c0.1-1.4-2-0.7-2.7-1.3c-7.6-6.1-13.4-12.7-18.5-22.1c-4.9-9-9.2-20.1-10.6-31.5
		c-1.4-11-9.1-12.6-16-18.1c0.2,0.2,0.3,0.3,0.8,0.3C1628.6,440.6,1629.7,440.4,1629.8,440.9z M550.1,1193.3
		c-0.7,0.5-3.6,5.4-4.4,7.5c-0.8,2.2-1,4.8-1.5,7c-0.5,2-0.1,7.1,0.1,9.7c0.3,2.6,1.9,7.9,2.2,8.8c0.3,1,3.8,14.6,4.4,16.8
		c0.3,2,0.2,11.5-0.8,14.5c-0.9,2.9,0.6,9.4,1.2,11.7c0.7,2.3,13.1,27.8,13.1,27.8s14.8,30.9,15.5,33.3c1.4,4.6-0.6,11.4-1.5,15.8
		c-0.5,2.9-0.6,7.4-2.2,9.9c-0.7,0.9-4.6,3.6-5.8,4.8c-1.1,1.3-0.9,3-0.5,4.5c0.3,1.6,2,4,2,4s-4.5,12.3-5.8,13
		c-1.5,0.9-2.8,0.4-2.8,0.4s-3.9,5.1-4.8,8c-1,2.9-0.6,4.3-0.5,5.6c0.2,1.2,1.7,3.6,2.8,4.2c5.9,3.6,15.2,2.1,20.6-1.2
		c6.5-4,10.6-11.6,11.8-18.8c0.2-1,7.9-15.6,9.1-15.5c1.2,0.2,3.2-1.1,4.8-0.1c1.5,1,3.4,1.6,5.4,2.2c1.8,0.5,2.2,1.1,3,3.1
		c0.9,2,3.3,1.6,5.2,2.4c1.9,0.8,1.6,2.5,0.5,3.9c-1.1,1.6-2.4,5.6-3,6.8c-0.5,1.1,0.6,3.6,1,4.8c0.4,1.1,3.2,1.7,3.2,1.7
		s3.6,2.1,7,2.5c3.3,0.4,2.9-1.6,2.9-1.6s1.1,1.3,3,1.6c1.9,0.3,3.4-0.5,6.1-2.9c2.6-2.3,3.2-4.1,3.2-4.1s3.6,0,5.8-0.4
		c2.4-0.4,6.5-2.1,8.7-3c2.1-0.9,7.4-1,8.2-1.5c0.7-0.3,2.4,1,4.4,2c1.9,1,7.3,0.2,9.9-0.5c2.6-0.7,7.1-2.1,9.3-3.8
		c2.2-1.8,3.4-3.3,4.7-5.8c1.1-2.5,1.1-2.5,3.5-3.5c2.2-1.2,7.7-1.2,10.3-1.2c2.6,0.3,6.3,1.9,8.6,3.3c4.9,3.2,16,4.2,15.9,11.4
		c0,2.6-2,1.9-4.1,2.8c-2.1,0.7-16,4-18.8,4.4c-2.8,0.4-7.9,2.3-11.2,3c-7.1,1.6-14,9.7-15.2,16.7c-1.4,7.8,8.5,11.8,15.3,10.4
		c1.7-0.4,8.2-1.6,9.4-1.7c3.5-0.2,7.3-2.2,10.6-3.2c4.5-1.5,9.1-2.4,13.9-3.2c8.1-1.4,16.5-5.8,23.3-10.2c10-7,13.4-19,8.8-29.8
		c-2.8-6.6-5.5-12.8-12.8-15.6c-8.7-3.2-16.8-6.5-26-8.1c-8.6-1.6-17.4-2.5-25.6-5.8c-1-0.4-1.6-1.1-1.6-3.6
		c0.2-8.5,1.6-16.9,1.7-25.2c0.1-11.2-1.2-22.3-3.8-33.2c-3-12.7-11.1-24.3-20.8-33.4c-4.3-4-9.7-9.3-15-11.7
		c-5.5-2.5-11.5-3.9-17.6-4.2c-1.2,0-14.4,0.5-14.5,0.4c0,0-0.7-3.3-1.1-4.5c-0.3-1.1-2.8-5.3-3.3-6.1c-0.6-0.9-0.8-5.5-1.1-6.5
		c-0.2-0.9-0.2-6.1-0.8-6.9c-0.6-0.8-2.2-4.7-2.5-5.5c-0.3-1,0-3,0.6-4.7c0.5-1.7,0.9-2.9,1.7-4c0.8-1.3,4.7-12.6,5-14.2
		c0.3-1.7,0.3-5.3,0-6.9c-0.5-1.7-2.3-1.3-4-1.5c-1.6,0-4.3,1.3-7.3,3.2c-3,1.9-5.3,4.2-6.5,4.8c-1.2,0.5-5.9,0.4-7.6,0.4
		c-6.2-0.4-11.9-3.8-18.2-3.8c-3.4,0.2-7.2,1-10.6,0.5c-5.6-0.9-8.4-8.5-12.1-12.3c-1.9-1.9-4.5-3.9-7.1-4.9c-4.4-1.4-3.7,1-4.4,4.3
		c-0.4,1.6,1.3,27.7,1.3,27.7S550.8,1192.4,550.1,1193.3z M395.9,1731.8c-5.7,2.5-12.2,3.9-18.3,4.3c-7.1,0.7-16.3,0.7-23.2-1.5
		c-1.7-0.4-18.7-7.3-18.9-7.5c-8.3-3.3-17.2-11.6-22.1-19.4c-4.1-6.3-6.5-12-8.7-19c-1.8-5.8-0.9-12.6-3.1-18.3
		c-0.8-2-1.3-4.6-2.7-4.9c-1.3-0.6-2.8,10.8-3.8,15.1c-0.9,4.5-1.1,7.3-2.8,10.2c-1.7,2.8-4.5,8.9-5.7,10.5
		c-1.3,1.7-9.4,8.4-10.5,9.1c-1.2,0.5-7.6,0.5-7.6,0.5l-7.6-3.6l-3.9-8.1c0,0-3.2-8.2-3.7-9.4c-0.6-1-2.9-7.2-3.1-8.5
		c-0.1-1.6,0.2-5.4,0.2-8.4c0-3.2,0.5-7.9,1.1-9.5c0.6-1.7-0.3-3.9,1.9-5c2.4-1.2,4.6-2.7,4.6-2.7s-0.2-1.4,0.5-4.4
		c0.7-3.3,0.9-4.5,2.5-6.7c1.7-2.3,3.2-3.2,4.7-4.1c1.4-0.9,8.1-3,8.1-3l-12.4-3.3c-15.3-4.2-27.8-11.6-40.6-20.6
		c-21.7-15.2-38.6-43.8-23.8-68.9c3.2-5.5,8.2-10.6,12.2-15.3c7.9-9.6,30.1-25,12.1-36.3c-13.5-8.5-31.5,0-45.9,2.1
		c-7.8,1.1-15.8,3.7-23.6,4.7c-21,2.4-65.3-4.8-59.9-34c2.3-12,13.1-24.7,24.2-29.6c12.1-5.4,26.4-5.8,39.4-4.3
		c6.9,0.9,14.2,2.2,20.9,4.3c6.7,2,17.5,5.6,22.2,11.2c2.5,3,7.3,4.6,10.2,7.2c4.2,3.7,8.4,6.6,13,9.9c3.8,2.8,7.8,5.6,12.2,7.8
		c12.1,6.2,29.5,9.1,42.6,4.2c9.9-3.8,13.9-13.3,10.3-23c-1.3-3.8-3.5-6.5-6.1-9.2c-2.8-3.1-4.7-7.1-8.1-9.6
		c1.7,0.1,3.5,0.6,5.2,1.3c12.3,5.3,20.1,24.8,14.4,37c-4.3,8.8-19.7,17.2-29.9,15.5c-3.7-0.6-7.3-1-10.7-2
		c2.1,0.5,4.8,13.3,5.3,15.6c0.9,4.5,1.4,10.1,0,14.6c-0.5,1.7-3,8.4-3.9,10.1c-4.1,7.5-11,13-15.9,20.1c-4.3,5.9-8.4,16.9-4.8,24.1
		c8.1,16.6,29.5,28.4,47.1,31.8c6,1.3,13.8,3.4,20,2.3c9.7-1.7,21.6,0.2,31.4,1.4c11.6,1.3,23.4,3.6,34.4,7.3
		c9.6,3.4,18.3,9,26.9,14.3c3.2,2,6.1,6.4,8.6,9.1c3.7,3.7,7.1,7.8,10.5,11.8c6.5,8.4,12.3,17.7,14.8,28
		C431.5,1699.5,416.8,1723,395.9,1731.8z M204.2,1466.4c-7.3-4.8-14.5-9.1-22.4-12.4c-13.5-5.7-27.6-8.2-42.2-6.2
		c-7.3,1-22.4,2.2-24.2,11.2c-2.2,11,11.8,14,19.4,16.3c5.3,1.6,13,1.3,18.3,0.6c15.4-2.2,30.6-6.1,45.8-9.4
		C200,1466.3,204.2,1466.4,204.2,1466.4z M387.1,1681.2c0.6-11.4-10.8-21.5-19.2-27.8c-6.5-4.8-12.4-9.2-20.2-10.9
		c-10.8-2.2-22.9-3.3-33.9-2.9c0,0-13.8,0.6-13.8,0.6c11.8,6.9,21.5,14.9,30.2,25.5c0.9,1.2,6.7,10.4,7.2,11.9
		c3,8.1,8.4,15.6,17,18.2C366.2,1699.3,386.2,1696.7,387.1,1681.2z M1122.1,1935.3c7.3,12.1,32.4,87,53.1,66.7
		c9.9-9.8-15.9-34.6-17.7-40.6c-8.2-27.7,5.6-45.2,23.7-49.1c8-1.7,40.3-1.3,50.2,8.7c1.5,1.5,5.2,16.9,5.8,20.2
		c4.1,19.3,10.2,58.9,23.7,63.8c7,2.6,28.2,3.7,32.5-5.9c5.5-12.5-19.7-12.9-23.7-20.1c-0.2-0.3-9.7-44.4-3-49.4
		c4.5-3.1,31.4,12.7,47.3,23.2c21.6,14.2,36.1,20.2,44.3,26.2c9.1,6.3,30.8,42,44.3,28.9c10.2-9.9-14.1-34.9-26.7-46.4
		c-12.9-11.8-35.1-23-41.4-37.6c-16.9-39.6,33.3-61.4,76.9-60.8c6.3,0.1,13.3,7.3,23.7,2.8c20.4-8.4,11.1-34.5,2.9-49.1
		c-5.9-10.8-15.7-12.1-17.7-23.1c0,0,2.7-23.3,2.9-23.3c-6.9-4.9-22,12.7-32.5,17.5c-24.3,10.5-88.1,18.6-115.3,17.3
		c-23.3-1.3-47.8-10.2-70.9-11.5c-20.1-1.3-41.1-1.7-59.1,0c-33.1,3-58.9,22.5-85.8,23.1c-56.9,1.4-62.9-44.5-97.5-66.6
		c-7-4.4-45.2-16.3-35.5-14.4c-17-3.3-38.5-2-38.5,5.7c0,12.5,36.8,11.7,44.3,14.5c35,12.8,32.2,40.6,68,66.6
		c14,10.2,57.1,17.9,62.1,26c1.9,3.1,0.7,55.5,0,57.9c-3.4,10.9-16,8.4-20.7,17.3c-4.2,8.3-10,59.5-8.8,63.8
		c-2.4-9.5,12.2,32.3,29.5,20.3c16-11-6.9-17.5-5.9-34.8c0.5-7.4,6.6-24.6,17.8-31.8c12-7.6,46.3-9.3,47.3-8.6
		C1122.5,1932.8,1121.9,1934.9,1122.1,1935.3z M1499.4,412.3c-1.9,0-3.7,0-5.6-0.1c-3.9,12.4,1.5,25-8.8,32.6
		c-4.1,3.1-17.1-2.5-25.1-0.4c-3.9,1.1-20,16.5-31.2,21.5c-20.1,8.8-38.5,6.1-41.9,12.9c-3.7,7.1,4.4,24.2,13.4,30.3
		c16.7,11.3,53.2,3.9,58.5,6.5c30.7,14.6,21.2,110.6,33.9,137.2c6.3,13.2,21.1,22.6,27.2,35.9c7.3,15.9,7.6,38,10.3,57.5
		c4,30.2,13,61.4,4,82.1c-4,9.4-12.4,5.6-16.8,10.7c-17.1,19.2,2.5,31.7,19,27.6c14.4-3.5,9.6-16.5,17.3-32.5
		c1.8-3.8,14.2-18.2,14.3-18.9c7.6-32.7-14.1-83.3-0.9-112c9.4-20.6,70-24.3,100.9-28.3c16.2-2.2,30.6-7.7,36.4-7.7
		c10.2,0.2,10.6,6.1,19.4,8.6c9,2.6,14.6-2.9,22.3,3.2c6.7,5.4,17.6,43.8,29.6,57.8c16.6,19.5,63.8,41.2,54.4,77.5
		c-3,12.1-15.7,9.5-22.6,18.6c-2.4,3.2-12.7,34-11.6,35.4c3.1,5.1,35.3,7,41.7,0.6c3.8-3.8,0-12.4,3.2-24.5
		c2.2-8.5,10.7-12.6,14.3-21.6c5-12.2,9.3-38.2,9.1-40.8c-1.5-22.1-32.3-51.2-34.8-88c-0.6-10.3,3.4-23.7,3.4-35.4
		c0.2-38.7-18.3-66.2-12.4-87.7c9.7-35.6-16.3-4.6-30.5-3.2c-7.2,0.6-22.3-4.2-33.5-6.1c-31.5-5.2-64.5-3.8-97.5-4.3
		c-51.1-0.7-94-18.4-116.3-48.3C1522.2,481.5,1514.5,440.4,1499.4,412.3z M412.8,1468.3c0,0-43.7-2.5-50.4,25
		c-10.2,0.8-20.6,4.5-12.8,19c1.1,5.8-5.1,25-5.3,30.8c-0.1,6-3.7,13.8,4.2,14.9c7.8,1.2,13.3,2.6,16.9,1
		c3.4-1.4,31.5-8.2,38.2-12.9c6.8-4.7,13.9-5.3,18-6.1c4.2-1,17.7-10.8,18.8-12.7c1.1-1.7,26.6,4.6,35.6,5.5
		c9.1,1,14.5,0.6,15.1,7.5c0.5,7,5.7,33,1.4,39.8c-5.6-3.2-10-5.3-10-5.3s0,7.7,6,9c-0.9,2.4-7.9,4.8-14.3-1.7
		c-3.7,0.3-3,7.8,3.1,9.1c6,1.1,12.5-0.4,10.2,0.8c-2.4,1.3-5.2,3.3-10.6,2.6c-5.4-0.8-7.9,4.2-6.6,6.3c1.4,2.4,4.3,1.5,9.1,1.6
		c4.9,0.3,14-4.6,15.7-5.8c1.7-1.4,2.6,2.8,0.6,6.2c-2.2,3.8-0.1,7.1,1.7,7c1.8-0.2,5.7-9.3,6.7-12.2c0.9-3,8.6,2.7,15.6,1.8
		c7-1.1-0.2-3-4.8-7.4c-4.5-4.2-7.7-6.3-6.3-19.4c1.3-12.9,6.3-39-2.6-45.4c-8.9-6.3-19.3-9.5-19.3-9.5s24.3-9,39.2-2.1
		c14.9,7.1,49.6,15.5,55.5,14.3c5.8-1,6.4,13,14.6,18.3c8.2,5.2,20.6,18.8,14.2,20.5c-6.5,1.7-14.5-1.2-16,1.2
		c-1.7,2.5,5.9,0,6.7,2.9c0.8,2.9-1.9,6.6-5.3,8.1c-3.4,1.4-2.3,7.8-2.3,7.8s3.5-6.8,6.6-6.4c3,0.3,6.4-1.7,6.4-1.7s4,4.3-1.2,7.1
		c-5.1,2.8-3.2,4.9-2.4,7.2c0.8,2.3,1.5-2.5,5-3.9c3.5-1.4,7.3-6.3,8.2-8.8c1.1-2.5,5-4.5,8.5,1.6c3.5,6.2,7.2,7.1,6.3,11.8
		c-0.8,4.8,7.5,4.1,4.6-2.6c-3-6.9-9.5-12.8-7.7-13.6c1.7-0.6,8.6-3.5,12.3-2.6c3.7,0.9,12.8-5.3,15-7.1c2.2-1.9-3.9-4.3-10.2-0.3
		c-6.3,3.8-11.7,2-12.6-0.3c-0.8-2.3-3.6-14.9-9.2-19.2c-5.8-4.2-8.1-11-8.1-11s28.8-4.6,35.1-8.5c6.3-4,42.4,5.4,59.8,7.6
		c17.4,2.1,40.5,13.7,56,34.6c15.4,21.1,49.5,41.8,93.1,36.6c7.6-1.7,6.1-4.6-6-7c-12.2-2.6-46.1-8.1-57.7-25.9
		c-11.6-17.8-22.7-58.5-56.8-65.2c-33.9-6.7-74.1-8.3-85.9-14.3c-11.7-6.1-28.1-22.9-38-19.7c-9.9,3-23.2-5.3-30.1-9.9
		c-6.9-4.8-67.6-37.5-100.3-22.6c-32.9,14.9-31.3,3.8-39.6,13C436.6,1467.7,422.9,1468.1,412.8,1468.3z M1169.1,146.2
		c0,0,25.6-7.7,32.6-8.7c7-1.3,12.3,0.4,16.5-1.7c4.5-2.3,12.6-12,2.4-47.7c-0.6-8-1-11.4,3.5-14.5c4.7-2.9,22.1-12.7,25.6-13.6
		c3.5-0.7,14.9,2.5,14-8.2c-1.7-5-7.2-8.7-13.1-4.1c-5.8,4.5-11.7,6-18.6,3.2c-6.7-2.6-11.1-15.1-6.3-19.2c4.9-4,9.2-12.5,2.1-15.3
		c-7.2-2.6-14.5-0.3-13.2,6.5c1.3,6.9,1.3,24.4-7.6,27.6c-8.9,3.2-11.8,0.3-12.4-2c-0.7-2.3,0.8-10.5-6.7-10.4
		c-7.6,0.1-14.4,8.1-8.2,12.1c6.3,4.2,12.7,10.2,13.6,14.6c0.8,4.3,2.6,15.8-0.9,15.8c-3.6,0.1-3.8-5.1-7.6-3.2
		c-3.7,1.8-6.3,9.6-1.7,9c4.6-0.6,8.6-1.7,12.8,0.1c4.2,2,7.6,5.8,4.2,16c-3.3,10.3-4.5,23-4.5,23s-25.5,5.5-28,3.3
		c-2.4-2.2-6.1-23.1-2.7-30.5c2.4-6.2,8-33.2-15.9-29.4c-8.8-10.5-25.9-27-37.4-24.3c-8,2.3-25.3,26.8-26.7,31.9
		c-4.3-1.6-23.1,4.2-13.9,23.9c2,7.8,4.6,11,6.1,15.3c1.6,4.3,13.6,28.2,12,32.6c-1.6,4.3-4.6,31.7-7.6,33.1
		c-3,1.4-31.8,11.8-36.5,11.4c-4.8-0.4-6.9-4.3-7.1-7.9c-0.1-3.5,8.8-7.7,4.9-12.2c-3.8-4.5-9.3-1-10.3,3
		c-0.9,3.9-15.5,21.8-28.9,3.8c-0.9-7.2-1.3-12.9-5.9-12.6c-4.6,0.1-14.5,4.5-9.4,10.6c5,6.1,14.7,12,11.1,17.2
		c-3.6,5.5-14.7,14.1-22.8,12.3c-8.2-1.9-21.8-2.3-16.6,10.8c3,3.8,9.5,6.5,12.5,1.9c3-4.5,10.3-6.8,16.8-3.1
		c6.7,3.8,12.3,9.9,10.2,18.8c-2,9.1-5.2,9.7-6.8,11.7c-1.5,1.9-1.8,10.7,7.2,11.7c9.1,1,9-5.2,8-10.7c-1.1-5.5,2.1-15,6.9-21.5
		c5-6.6,12.6-11.7,12.6-13.9c0.2-2,31,3.8,41,1.5c10.1-2.3,22.8-3.5,20.9-10.6c-2-7.1,4-31.4,6.3-32.4c2.4-1,2.7,21.1,9.7,31.5
		c7,10.4,25.8,37.3,40.1,43.6c14.5,6.2,31.4,9.9,29.5,20.7c-1.8,10.6-26.9,54.3-38.9,71.9c-12.2,17.5-17.5,23.1-17,27.6
		c0.7,4.5,0.9,9,10.1,17.4c9.3,8.4,25.9,18.3,43.8,26c17.7,7.7,46.2,17.9,44.9,25.2c-1.2,7.1-17.3,48-23.4,50.8
		c-5-0.8-11.6-3.6-10.4-9.2c1.1-5.7,3.8-12.7-3.5-13c-7.1-0.1-11.3,6.9-8.3,10.4c2.9,3.6,10.7,14.6,4.4,18.2
		c-6.3,3.5-15.5,4.6-16.7,1.1c-1.2-3.3-12.5-11-16.5,0c0,6.2,4.3,9,8,7.4c3.8-1.5,19.4-0.1,18.6,7.2c-0.9,7.5-8.7,17.2-13.6,18
		c-4.9,1-11.6,5.1-5.9,12.7c4.6,2.6,11.9-1.5,13.2-5.5c1.3-4.1,7.9-8.5,9.7-3.2c1.7,5.3,1.1,17.7-4.5,22c-5.5,4.2-7.8,6-3.7,9.8
		c4,3.7,13.1,5.5,13.2-4.8c0.2-10.2,1.1-14.8,3.3-16.8c2.2-2,10.9,9.5,11,13.7c0.2,4.2-7.1,12.4-1.3,15.4c5.8,3.3,12.5,2.5,12-3.7
		c-0.4-6.4-8.9-17.2-8-24.5c0.9-7.1,8-30.1,9-37.8c0.7-7.8,27.6-59.1,32-63.5c4.6-4.3,8.9-15.7-0.8-20.9
		c-9.6-5.2-43.7-23.9-49.9-29.8c-6-5.9-22.5-19.8-40.1-19.8c-3.5-3.1-5.4-5.2-0.4-9.7c4.8-4.5,15.8-19.1,30.9-30.4
		c15-11.3,34.4-25.2,36.3-44.4c3.8-4.3,5.5-4.2,8.4-7.7c2.8-3.5,25.5-27.6,29.6-43.9c0,11.2-3.2,60.1,3.8,67.9
		c3.1,1.7,33-5.6,70.1-20.7c7.7-2.3,10.2-1.2,8.9,1.4c-1.5,2.6,2.7,10.6,0,11.5c-2.8,1-4.3,5.1,0,5.7c4.3,0.4,9.1,1.3,7.4-3.1
		c-1.6-4.3-0.1-9.5,0.9-11c0.8-1.4,6-8.8,9.8-7.5c3.6,1.3,8.1,5.8,8.8,8.5c0.7,2.6,4.7,5.6,9.7,0.1c1-2.6,0.1-4.9-3.9-5.4
		c-4-0.6-12-9.5-10.5-11.8c1.5-2.3,7.3-10.7,10-9c2.7,1.9,4.1,5.2,6.1,3.2c1.9-2,7.1-6.2,0.6-9.5c-4.9-2.3-6.9-1.6-10.1,1.6
		c-3.2,3.2-10.7,1.6-8.6-5.3c2.9-2.8,5.9-1.7,7.3-5.1c1.3-3.3-2-7.1-7.1-5.1c-5.2,2.1-5.2,4.8-4.8,7.6c0.3,2.7-5.7,15.2-9.6,17.6
		c-4.1,2.6-14,6.2-21.8,6.5c-7.8,0.2-41.9,5.8-47.3,10.6c-0.3-7.7,16-60.8,18.3-76.9c2.2-16-1.1-37-12.6-37.4
		c-11.5-0.3-22.3,16.1-26.1,23.1c-3.7,7.1-33.1,42.2-39.1,42.6c-4.2-4.8-5.8-6.4-5.5-12.7C1205.7,215.1,1193.1,160.5,1169.1,146.2z
		 M2215.1,1013.1c0,0-55.9-37.4-77.9-22.5c-24.6-7.5-68.4-3.3-61.3,35.1c7.1,38.4,27.3,65.6,6.4,70.4c-22,4.9-27.4-3.7-26.7-32.5
		c0.7-28.7,10.3-133.4-47.9-140.8c-65-8.3-116,24.5-125,81.9c-8.9,57.2,22.3,152.8-22.7,181.4c-43,27.3-112.7,22.7-100-22.9
		c12.7-45.8,54.7-55.2,73-88.7c16.6-30.4,16.2-57.1-6.8-80.7c-23-23.4-8-56,16.6-41.7c16.1,9.3,14.7,13.7,24.8,27.3
		c3.4,4.6,2.6-30.6-22.6-40.8c-25.2-10-45.7,4.3-44.3,27.4c1.5,22.9,24.4,77.1-7.3,95.1c-22,12.5-114.2,67.2-95.5,140.5
		c18.6,73.1,86.4,105.8,173.6,55.8c87.1-49.8,87.3-159.7,74.6-197.7c-15.2-46.3,5.6-80.4,40.6-72c18.4,4.3,9.4,56.8,14.9,95.4
		c5.7,39.1,49.6,87.3,103,66c51.3-20.5,46.3-62.2,32.9-79.9c-13.3-17.5-30.1-50.4-22.6-40.6c7.6,9.7,34.8,23.7,58.3,22.3
		c23.5-1.4,43.4-18.4,43.4-18.4S2222.8,1017.1,2215.1,1013.1z M1569.5,177.4c0,0-2-4.5-12.1-5c-10.1-0.7-5,16.5-1.8,19.5
		c-4.9,5.3-19.1,6.5-33,6.1c-14.1-0.6-32.4,1.7-58.5,22.5c-34.1,28-23,80.2-21,91c2,10.9-12.5,12.4-24.2,21.4
		c-11.7,9-47,35.2-54.6,34.6c-7.4-0.6-21.4-1.2-29.8,6.9c-8.4,8-15.7,13.3,17.2,29.9c33.1,16.5,80.5-29.7,87.7-39.3
		c7.3-9.6,25.3-34.9,27.7-35.7c2.5-0.7,6.5,7.7,8.2,10.8c1.7,3,14.7,8.1,20.8,7.7c6.1-0.4,12.2,2.9,14.9,3.3c2.7,0.4,3,5.1,3.3,7.2
		c0.3,2,3.6-1.4,2.8-4.4c-0.8-2.7,0.5-5.6,2.1-6.2c1.6-0.7,4,3.2,10.5,3.2c6.5-0.1,1-5.6,1-5.6s1.8,0.4,4-2c2.3-2.5-2.2-2.6-6.5-5.8
		c-4.4-3.1-7.5-0.6-12.8,2.3c-5.2,2.9-12.9-2-17.4-3c-4.6-1,5.6-5.9,18.3-11.7c12.6-5.6,18.8-36.4,22.2-36.8
		c3.4-0.6,10.5-5.5,13.5-8.4c3-3,17.3-0.4,19,1.9c1.7,2.3,11.2,5.5,15.8,4c4.6-1.4,6.2,0.9,8.4,3.9c2.2,3.1,5.2,2.6,7.4,0.2
		c2.2-2.5-5.8-6.4-6.3-10.1c-0.5-3.8,8.1-1.2,10-2.8c2-1.6,4.1,1.6,5.7,0c1.6-1.4-0.6-4.2-2.8-6.4c-2.2-2.3,5-1.6,5-1.6
		s-6-3-9.7-4.7c-3.8-1.6-13.2,8-13.2,8s2.5-6.4,0.4-8.2c-2-1.7-4.7,8.8-4.7,8.8s-2.6-0.4-3.8-7.5c-1.1-7.1,22.7-28.9,23.7-30.8
		c1-1.9,2.8-0.8,9.1-3c6.2-2.2,15.4-7.8,16.5-9.3c1.1-1.4,4.6-0.7,9-3.9c4.3-3.2-0.1-6.4-3.8-7.5c-2.3-6.9-20.5-26.4-44.2-36.2
		c-20.3-26.9-17.4,0.4-17.4,0.4C1573.5,175.1,1569.5,177.4,1569.5,177.4z M2028.3,1627.9c-2.8,3.6-7.8,5.8-11.6,8.3
		c-4.7,3.2-9.4,6.4-14,10c-15.5,11.5-29.6,24.8-46.9,34c-6.9,3.4-14.3,6.1-21.8,7.9c-13.4,3.3-27.2,4.2-41.1,4.1
		c-7.2,0.2-14.4,0-21.7,0.2c-6.9,0.1-14,1.9-20.9,1.7c9.2,0.2,18.3,1.1,27.4,1.7c15.2,1.2,29.7,3.5,44.7,1.5
		c28.3-4.1,54.6-18.8,77.4-34.7c7.9-5.5,17.2-9.9,24.2-16.7c3.5-3.4,10.6-12.1,16-4.9c1.1,1.5,2.7,4.6,3.9,5.6
		c1.1,0.9,5.9,6.5,6.8,7.2c1,0.9,3.5,5.5,3.9,7.2c0.4,1.6-0.9,3.5-1.7,4.3c-0.7,0.9-2.4,0.6-2.9,1.7c-0.6,1.3,0.7,3.7,1.8,5.2
		c1.2,1.6,4.3,5.1,4.3,5.1l5.3,4.3l6.8,5.9c0,0,3.6,4.8,4.3,6c0.8,1.2,0.9,3.3,1.8,1.5c0.9-1.9,0.2-2.2-0.4-4
		c-0.8-1.8-0.2-1.6,3.7-2c3.7-0.5,4.4,1.6,8.5,2.9c4.1,1.3,2.6-1.3,3.8-1.7c1.5-0.5,1.7,0.3,1.7-1.7l-3.3-2.1c0,0-6.4-2-7.6-2.5
		c-1.3-0.6-6.2-1.3-6.2-1.3l-8.9-7.2l-4-4.2l0.1-3.1l2.1,3.7l5.9,5.2c0,0,6.2,3.5,7.4,3.3c1.5,0,6.3,3,7.8,2.2
		c1.4-0.7,2.7-0.8,5.3-0.1c2.6,0.7,4.6,0.7,6.2,1c1.7,0.2,6.1-0.4,6.1-0.4s-2.3-3-5.9-4.8c-3.7-1.8-6.3-0.6-6.3-0.6
		s-7.3-1.7-11.1-1.7c-3.7,0.2-5.3-4.1-7.9-6.6c-2.6-2.8-1.3-2.8,0.2-5.2c1.3-2.5,2.1-2.5,5.3-6c4.3-4.7,10.2-7.8,11.4-14.7
		c0.4-2.9,2.5-8.1,3.1-13.6c0.4-5.5,5.3-12.3,8.6-19.4c3.5-7.1,6.3-10.6,8.7-17.1c2.4-6.5,9.5-26.4,12.3-31.5
		c2.8-5.1,8.1-17.1,10.3-20.8c2.2-3.4,2.7-2.1,5.4-4.7c4.1-3.8,13.2-4.1,18.4-4.1c2.4,0,3.6-1.2,6.3-2c2.8-0.9,3.4-0.2,5.3,0.4
		c1.9,0.7,3-0.9,3.7-1.8c0.8-0.8,0,0-1.5-1.6c-1.4-1.4-2.3-2.6-3.8-3.1c-1.5-0.4-3.9-0.6-5.7-0.1c-1.7,0.4-5.8,0.4-9.7-1.8
		c-4.1-2.4-3.4-2.2-5.4-6.8c-1.9-4.6-1.7-5.8-2.2-10.9c-0.6-4.9-0.2-7.1-0.9-11.9c-0.7-4.6-0.3-4.6-0.3-4.6s1.5-0.8,3.2-2.7
		c1.7-2.2,3.9-2.3,6.2-6c2.3-3.7,3.9-5,5.4-8.8c1.5-3.5,4.8-8.8,6.3-10.5c1.6-1.6,2.7-4.8,3.6-7.6c0.7-2.7,1.9-5.8,0.3-7.1
		c-1.5-1.2,0.2-2.6-0.5-4.8c-0.7-2,0.3-1.4-1.6-2.5c-1.8-0.9-3.9-0.5-5.9-0.5c-2.1,0.1-6.5,2.3-7.8,3.2c-1.6,0.7-9.7,2.3-9.7,2.3
		l-8.9,5.3c0,0-9.9,6.4-11.1,6.8c-1.1,0.6-2.7,1.3-3.9,1.3c-0.9,0.2-5.8-0.9-7.2-0.6c-1.4,0-4,0-5.5,1.1c-1.5,1.1-3,3.6-3.5,4.8
		c-0.4,1.3,1,2.5,1.9,2.8c1,0.5,5.9,1.2,5.9,1.2s0.1,3.4,0,4.6c-0.2,1.3-3.7,6.3-4.4,8.9c-0.8,2.4-3.7,3.7-5.3,5.5
		c-2.2,2-4,4.5-5.5,7.1c-2.8,5.1-4.6,10.7-6.9,16c-1.9,4.5-7.6,9.1-8.4,13.8c-0.2,1.4-3.9,12.5-4.2,14c-0.9,5.6-5.9,12.4-8.7,17.2
		c-4.1,7.3-8.5,14.4-12.1,21.9c-2,4.3-6.8,8-9.7,11.8c-3.2,4.1-5.8,8.9-7.4,13.8c-2.1,5.9-3.2,12.1-4.8,18.2
		c-0.6,2.9-0.4,5.5-1.3,8.1C2029.1,1626.8,2028.8,1627.3,2028.3,1627.9z M2170.2,721.2c-1.2-2.6-6.6-3.2-9-4.6
		c-2.4-1.5-3.7-3.3-4.9-5.8c-1.4-2.5-5.7-4.5-10.4-7.5c-4.6-3-5.9-2.2-8-2.7c-2.4-0.6-4.2-1.9-7.4-4.5c-3.3-2.6-3.6-1.4-4.9-3.6
		c-1.5-2.1-2.8-3-6.2-5.7c-3.5-2.7-7-3.9-10.7-5.1c-3.8-1.2-6,2.4-6.6,0.7c-0.4-1.5-1.6-2.7-5.2-4.8c-3.7-2-11.8-4.4-13.8-4.3
		c-1.9,0.1-1.3-1-4.1-5.2c-2.7-4.2-3-0.4-3-0.4s-4.4-1.6-9.2-1.1c-4.7,0.2-3.4,1.4-4.7,1.5c-1.5,0.4-2.2,0.4-5.6,2.4
		c-3.7,2-3.1,0.8-2.9-2.5c0.3-3.3,5.4-4.1,8-6c3.2-2.4,6.1-5.5,9.8-7.4c6.6-3.2,13.8-4.8,20.4-8.2c8.6-4.5,16.8-10.2,23.2-17.5
		c3.3-3.6,4.5-4.5,6.5-7.1c1.9-2.5-0.3-3.7-3.5-6.5c-3.3-2.6-4.3,0.7-7.1,1.8c-2.8,0.8-5.2,3-9.7,5.2c-2.8,1.3-4.7,4.8-7.8,5.7
		c-1.5,0.4-4.3-0.3-6-0.3c-4.5,0.3-13.1,4.8-17.1,3.3c-1-0.4-2.4-2.2-3.2-4.1c-0.9-1.9-2-4.2-2.9-6.1c-0.8-1.9-3.1-2.2-4.7-3
		c-1.5-0.9-3.3-3.2-5.3-4.1c-1.9-0.9-6,0.2-7.7,0.2c-1.7-0.2-5.6,3.4-7.1,3.9c-1.7,0.4-3.4,3.2-5.1,5.7c-1.6,2.5-4.1,12.2-5.6,15.2
		c-1.4,3.2-1.5,7-1.9,11.9c-0.2,3.4,1.2,5.5,1.9,6.3c-0.7-0.7-2-2.3-3.6-5.3c-2-3.8-2.2-6.5-2.4-9.8c-0.2-3.3,1.4-10.8,2.1-14
		c0.7-3.2,0.8-4.5-0.6-6.5c-1.3-2.2-3.5-4.1-3.7-4.9c-0.1-0.9,0.3-3.9-2.5-7.8c-2.6-3.8-3.6-3.1-6.5-6.4c-2.8-3.3-2.6-4.9-3-6.3
		c-0.5-1.5-2.3-1.5-4.8-0.7c-2.5,1-5.2,3.9-7,6c-1.7,2,0,5.3,1.6,7.9c1.4,2.6,2.8,3.3,5.3,5.1c2.5,1.7,3.4,2.7,4.8,5.9
		c1.3,3.2-1.3,3.6-0.9,6.8c0.4,3.3,1.2,8.4,1.6,11.6c0.4,3.4-0.6,5.4-1.3,6.8c-0.7,1.4-3.1-2.5-4.4-4c-1.1-1.8-4.6-7.2-7.1-8.2
		c-2.4-1.1-6-3.2-8.4-3.9c-2.5-0.7-4.6-0.4-7.6,0c-9.2,1.4-19.2,5.1-27,10c-4.3,2.6-6.2,7.1-9,10.7c-5,6.9-7.3,15.2-7.5,23.7
		c-0.1,4.1,1.2,11.1,2.5,14.6c1.4,3.6,2.6,5.8,2.6,5.8s-4.6-0.7-7.5-2.7c-3-2-4.6-4.1-6.3-5.9c-1.7-1.7-3.9-5.8-6.5-7.4
		c-2.6-1.6-6,1-7.7,3.3c-1.8,2.4-3,4.8-2.8,6.3c0.1,1.6,5.4,3.9,6.7,5.7c1.2,2.1,3.2,5.3,4.4,6.4c1.1,1.3,5.9,3.3,7.1,3.6
		c0.9,0.3,10.2,5.3,12.6,7.1c2.4,1.8,9.5,4.3,12,5.3c2.4,1.2,7.8,0.7,10.8,1.2c3,0.6,0.9,3.8,0.9,3.8s-1.8,4.5-2.3,6.7
		c-0.6,2.3-1.2,2.8-1.4,4.6c-0.2,1.9-2.6,5.8-3.7,8.6c-1.1,2.7-2.6,8.8-3.1,11.2c-0.4,2.5-1.9,12.1-1.9,14.8c0,2.8,0,4.8,0.8,7.2
		c0.8,2.2,3.4,3.4,5.4,5.9c2.2,2.5,5.6,5.6,6.3,8.2c0.8,2.6-0.2,4.6-0.4,8.5c-0.1,3.8,1,4.4,3.2,6c2.3,1.7,3.3-2.8,5.1-3.8
		c1.8-1,3.7-5.8,3.9-8.7c0.2-2.9-0.2-3.7-1.4-7.1c-1.2-3.2-7.6-11.7-8.6-14.5c-1.1-2.7-2.1-6.4-2.3-7.9c-0.1-1.6,1.9-3.1,3.1-5.2
		c1.3-2.3,2.8-6.4,3-9c0.3-2.5,0.7-4.9,1.7-4.9c1.2,0,4.3-3.6,6.3-5.5c2-1.8,6.7-7.5,8.7-9.1c1.9-1.4,3.7-1,5.3-1.6
		c1.6-0.4,3.8,1.2,4.3,1.6c0.5,0.6-0.5,4.9-0.6,5.8c-0.2,0.8-1.6,9.5-1.1,13.7c0.6,4.1-0.4,8.4,0.5,12.5c0.9,4.2,3,7.3,4,10.5
		c0.9,3-0.5,7.1-0.2,10.2c0.5,2.9,1.9,10.7,3.3,14c1.6,3.2,0.8,7.3,1.4,13c0.7,5.6-1.1,6.3-0.1,13.1c0.9,6.9,2.7,10.7,5,15.9
		c2.3,5.2,1.6,9.4,2.5,13.7c0.7,4.3-0.2,5.2,0.4,7.3c0.4,2.3,0.6,4.1,2.6,6.3c1.8,2.2,1.8,3,3.9,2.4c2.1-0.7,4.3-1.1,4.3-1.1
		s2.8-3.5,2.9-5.1c0.2-1.5,0.5-3.7-0.2-6.8c-0.9-2.9-1.9-8.6-3.1-11.1c-2.9-5.4,0.5-14.9,0.2-20.7c-0.2-8.7-1.1-17.2-1.3-25.8
		c-0.6-16.2-8-30.7-10.1-46.7c-0.6-4.5,1.6-10,2.1-9.4c0.6,0.5,4.2,0.5,5.9,1.5c1.8,1.2,7.2,0.3,10.2,0.3c3.1-0.1,9.6-1.1,10,0
		c0.6,1.4,1.9,4.4,3.9,7.6c2.1,3.2,4.3,6.2,5.5,8.3c1.1,1.8,5.5,7.9,6.9,9.1c2.8,2.9,6.5,4.8,9.5,7.3c4.8,4.4,6.4,12.3,12.9,15
		c1.7,0.8,5.3,4.4,6.1,6.5c0.9,1.9,4.3,9,6.1,12.3c1.9,3.3,5.2,10,7.6,13c2.4,3.2,4.5,4.8,6.3,7.2c1.6,2.4,6,6.2,8.5,8.5
		c2.5,2.2,5.6,2.2,7.5,1c2-1.2,2.5-2.8,3.2-5.9c0.6-3.4-1.2-4.1-3.4-6.2c-2.2-2.3-4.8-3.4-7.3-4.4c-2.4-1.2-1.3-2.9-2.1-5.1
		c-0.9-2.3-3.7-8.5-4.3-11.4c-0.3-3-4.1-6.5-5.3-8.4c-1.3-1.9-9.2-13-10.5-14.5c-1.4-1.3-17.2-20.5-17.2-20.5l-6.7-8.2
		c0,0,14.1,14.5,15.1,15.7c1,1,16,17.7,19.5,17.2c3.5-0.6,2.9-3.3,4.2-6.5c1.3-3.2-1-5.1-4.5-8.2c-3.4-3.2-6.2-5.2-7.6-7.4
		c-1.3-2-5.2-8.5-6.5-10.2c-1.4-1.9-14.7-17.9-18.6-20.7c-4-2.6,0.6-2.4,0.9-3.2c0.5-0.6,0.7-4.2,1.6-5.5c0.8-1.2,2.2-4.4,3.1-6.2
		c0.9-1.9,0.6-5,0.4-7c-0.1-1.8,0.6-3.6,1.9-2.3c1.2,1.4,6.1,6.7,8,10c1.9,3.4,6.9,9,8.7,11c1.7,2.2,10.8,9.3,13.1,8.9
		c2.2-0.4,1.9-3.5,4.2-7.5c2.2-4.2,0.2-2.6-1.7-5c-1.8-2.3-3.4-3.2-5-5.9c-1.7-2.9-2.6-5.1-5.6-6.9c-3-1.8-2.7-1.5-3.4-2.8
		c-0.7-1.4-1-3.5-3.1-6.6c-2-3.2-3.1-3.3-7.2-5.5c-4.2-2.2-4.7-1.3-5.9-2.6c-1.2-1.1-6.4-4.8-4.4-4.4c1.9,0.1,3.7-0.9,4.4-0.5
		c0.7,0.3,3.5,1.2,4.7,1.7c1.3,0.4,5.5,2,6.8,2c1.2-0.2,4.9,2.1,6,3.6c1.2,1.6,5.3,5.5,7.8,7.9c2.3,2.4,6.7,3.2,9.7,3.4
		c2.9,0.3,7.5-0.2,10.3,0.1c2.8,0.4,5.8,2.1,8.2,4.9c2.6,3,7.7,5.9,8.9,7.6c1.3,1.5,6.4,2.4,8.7,3.3c2.2,0.9,4.8,1.8,6.5,3.9
		c1.7,2.2,2.5,3.6,5.7,6.9c3.3,3.4,3.9,0.4,7.4,0.6c3.5,0.1,2.3-2.1,3-5.9C2173.4,725.2,2171.3,723.7,2170.2,721.2z M2050.5,650.2
		c1.5-1.6,3.4-4.8,4.9-5.5c1.6-0.8,6.1-4.3,6.1-4.3s-1.3-1.1-2.2-1.9c-0.8-1-2.1-2.7-2.1-3.8c0-1,0.6-3.6,0.1-5.5
		c-0.5-1.9-0.1-3.2-1.6-4.2c-1.5-0.9-2.4-1.7-4.4,0.1c-2,1.9-4.5,5.9-5.4,8.4c-1,2.6-0.9,6.9-0.4,8.8c0.4,1.9,0.4,2.6,0,6.1
		c-0.5,3.5-1.7,8-1.7,8l5.6-1.9C2049.3,654.5,2049.2,651.9,2050.5,650.2z M463.4,488c-9.2,6.9-10.4,3.1-25.6,4.8
		c-10.9,1.2-31.8,9.3-32.6,11.4c-5,11.9,19.6,20.7,26.5,26c2.8,2.4,5.5,6.4,8.3,8.7c4.7,3.9,21.6,18.4,17.4,23.5
		c-2.5,3.2-14.5-8.2-17.3,1.1c0.9-2.6,2.1,6.5,5.2,8.2c3.1,1.7,25,0.1,19.7,5.4c-2.8,2.9-15.6-2.6-20.2-0.9
		c-0.4,0.2-5.4,9.1-1.7,13.6c-0.7-0.7,9.9,5.2,5.7,3.8c3.7,1.3,8.5-2.4,13-3c6.4-1,16-2,23.4-0.3c2.2,0.4,25,11.6,23.7,10.4
		c2.8,2.7,4.5,14.3,4.5,14.3c-1.2,0.4-9.7-9-14.4-9.4c-6.5-0.5-13.8,6.3-13.7,9.1c0.2,2.7,2.6,2.5,2.8,3.5c1.5,6.2-4.8,6.1,4.1,5
		c10.4-1.1-0.8,5.8,2.3,6.4c3.5,0.7,8.3-2.9,14.4-2.9c11.5,0.1,20.7,7.7,26.9,10.9c7.2,3.9,17,4.9,19.4,6.9
		c3.6,2.9,6.3,12.4,10.4,16.5c18.4,18.1,60.9,26.6,80,47.8c11.6,12.8,17.9,28,24.8,39.7c3.9,6.5,9,12.4,13.1,19.8
		c2.4,4.1,5.9,16.3,11.5,21.4c3.5,3.1,14.6,6.5,14.9,6.3c3.9-3.1-41.5-33.4-4.1-5.1c-8.8-6.7-13.4-17.7-17.2-25
		c-13.2-26-13.9-37.3-37.6-62.6c-10.2-10.8-23-17.9-41.9-27.9c-12.6-6.8-37.6-18.2-36.5-33.5c0.4-4.3,7.7-13.4,10.1-18.7
		c10.7-23,11.7-46-1.4-64.4c-11.5-16.2-38.4-34.6-65.7-38.4c-13.5-1.8-18.1-0.7-21.9-11.7c-2.2-6.5,2.2-12.3-2.8-15.6
		c-8.1-5.5-18,3.9-20.6,2.2c-4.9-3.4,4.5-9.4-3.5-9.7C464.8,485.4,464.7,487.1,463.4,488z M748.8,1752.3c1.2-3.9,0.4-7.8,1.8-11.3
		c2.8-7,8.9-10.9,14.5-17.4c3.9-4.4,6-10.1,9.6-13.1c8.2-6.8,19.4-10.5,24.8-18.8c14.4-22.5,15-47.3-19.3-54.4
		c-7-13.8-32.8-20-39.8-0.7c-11.8-0.8-20.8,6.8-29.1,15.9c-17.2-12-52.9-19.6-60.6-8.8c-7.3,10.6,4.5,24.2,7.5,34.5
		c-14.4,1.4-25.2,13.5-35.6,26.8c-2.9-10.5-7-20.9-12.7-31.5c-3.1-6-4.3-13.2-7.2-15.8c-7.4-6-18-5.7-25.8-4
		c-19.4,15.8-40.1,27.9-56.1,50.4c-6.8,9.7-15.1,24.5-18.6,34.9c-1.2,3.6,0.5,5.8-1.5,8.7c-1.9,2.7-6.3,3.7-8.3,5.2
		c-9.8,7.7-18.1,12.6-29.2,17.8c-10.2,4.9-22.2,9.1-28.6,18.8c2.2,5,9.6,1.6,11.5,5.6c-3.9,5.9-12.3,5.8-18.7,8.7
		c-8,3.7-19,8.2-19,16.9c9.8,3.5,15.1-6.6,24.8-3.7c-3.8,16-26.1,20.6-13.7,32.6c8.5-4.2,14.8-15,24.1-17.3
		c3.4,4.2,0.5,11.2,9.2,11.9c17.1-38.4,44.2-68,72.2-85.6c1.1-4.1,1.7-7.7,4.1-12.1c15.2-11.6,31.7-19.5,43.6-40.7
		c5.3,19.9,17.5,37.2,37.6,52.1c-20.8,25.2-17.8,52.3-18.9,75.2c-33.9,2.8-64.4,16-95.6,26.4c-13.5,7.2-22.5,21.7-34.8,34.7
		c-6.9,7.4-14.1,16-21.4,21.4c-4.1,3.2-10.4,2.7-10.7,9.8c3.5,5.8,10.8,0.3,13.8,4.7c-4.9,3.1-6.7,7.8-11.1,10.6
		c-4.7,3.2-11.4,0.9-15.3,5.7c5.3,11.7,18.5-5.2,25.2-0.9c-7.3,13-13.1,17.8-24,24.9c13.1,11.6,24.9-11.6,36-18.2
		c-0.8,3.3-7.1,10.3-0.7,12.7c5.8-2.8,6.3-11.9,11.4-15c0.9,3.1-0.7,9.7,3.8,9.4c6.3-9.2,12-22.7,19-35.5c10.4-19,16.8-44,29.4-48.6
		c11.3-4.3,27-1.1,37.8-3.1c41.3-7.7,96.4-44.7,90.8-102c25.7,5.4,46.2-4.3,66.6-14.4c-8.9,24.1-1.9,43.2,2.4,63
		c-3.9,4.9-11.1-0.4-15.2,3.8c-0.1,7.8,11.3,4.5,17.2,7.5c4.1,4.2-0.2,7.7,0.5,12.3c3.3,1.8,6.5,2.8,8.4,0.5c1-1.9,0.7-12.3,6-13.9
		c4.1,5.7,15.5,10.9,20.7,4.3c-3.7-2.3-10.2-4.7-10.4-9.7c4.6-4.3,10.1-6.4,14.5-11.7c-1.9-1.7-0.2-4.5-3.7-5.5
		c-6.9,1.6-12.2,8-20.4,5.9c5.4-11.2,1.1-19.4-3.1-27.7C737.5,1776.5,745,1764.8,748.8,1752.3z M243.9,774.5l6.5-5.7l0.2,4.7l8-7.2
		l-0.6,6.1c0,0,5.5-6.8,6.2-7.4c0.6-0.4,2.8,5.8,2.8,5.8s4.6-2.8,5.4-3.4c0.8-0.5,5.7-1.3,6.4-2.3c0.9-0.9,1.9-5.8,1.9-5.8
		s2.4,2.2,2.3,3.5c0,1.3-1,2.9-1.1,4.2c-0.1,1.3-1.3,2.3-0.4,3.5c0.6,1.3,1.7,2.3,3,1.9c1.3-0.3,2.9-0.9,3.4-1.6
		c0.6-0.7,1.9-0.9,2.8-0.3c1,0.5,7.3,1.7,8.2,0.5c1-1.1,1.8-2.4,1.8-2.4s4.3,2.3,5.3,2.2c1.2-0.2,4.7,0,6.2-1.3
		c1.4-1.1,0.9-2.8,1.8-2.8c0.9,0.2,4.1,3.1,5.4,2.4c1.3-0.9,1.3-0.9,2.6-2.6c1.3-2-1.2-3.2,1.9-3c3,0.1,5,0.9,5.6,1.1
		c0.7,0.2-4.8-3.3-4.8-3.3s-4.3-2-8.4-1c-4.2,1-7.8,2.3-9.4,1.6c-1.7-0.7-2-3-3.6-3.8c-1.6-0.7,0.7-2.8,3.4-2.9
		c2.5-0.3,10.7-1,12.7-1.6c1.9-0.6,9.6-2.6,10.6-2.5c0.9,0.1,12.2,2.6,13.7,2.7c1.7,0,6.3-0.1,7.4-0.6c1.3-0.2,13-3.1,14.5-3.9
		c1.4-0.9,6.7-4,7.6-4c0.9-0.1,5,1.7,6.9,2.3c1.7,0.7,1.7,3.8,2.8,4.9c1.3,1.2,3.7,4,5,5.2c1.2,1.2,10.8,1.2,12.5,0.7
		c1.8-0.3,7.7-2.8,10.3-3.6c2.6-0.7,6.7-0.1,8.5-0.7c1.7-0.6,1.9-3,2.3-4.2c0.2-1.2,0-3,1.9-3.4c1.5-0.3,6-1,6-1s-4.8-1.3-6.8-1.4
		c-2.1-0.3-4.8,0.4-5.8,0.6c-0.7,0.3-3,0.2-5.7,0.2c-2.7,0-4.9,1.2-6.7,0.4c-1.9-0.7-5.5-2.3-6.8-3.1c-1.2-0.7-4.4-2.5-5.2-3.9
		c-0.8-1.1-2.3-3.2-0.4-4.5c1.8-1.2,4.8-0.6,7.3-2.3c2.5-1.8,2-4.2,3-4.8c1-0.4,13.4-1.3,14.7-1.4c1.3,0,6.9-1,7.7-2
		c0.9-1,2.5-2.3,3.4-2.3c0.9,0.1,6.4,0.5,7.3,0.9c1.1,0.3,3.2,0.8,4.7,0.8c1.6-0.1,4.2-0.4,5-1.4c0.9-0.9,2-2.3,2.1-3.6
		c0.1-1.4,0.4-2.9,0-4.2c-0.2-1.3-0.9-2.9-1.6-3.9c-0.8-1-3-3.2-3.9-3.8c-1-0.6-1.9-0.6-3.5-1.5c-1.6-0.8-4.1-3.5-5-4.2
		c-0.7-0.9-1.7-2.9-2.2-3.8c-0.6-0.9-1.5-3.3-1.7-5.1c-0.1-1.7-3-24-3-25.4c0-1.6-0.6-13.8-0.1-17.2c0.2-3.4,9.4-18.5,9.4-18.5
		l-10.4,9.5c0,0,0.7-12,0.7-12.4c0-0.4-5.2,8-5.2,8l2.4-12l-7,9.2c0,0-8-14.5-7.9-15.2c0.2-0.6-0.3,9.5-0.3,9.5l-4-9.1l0.5,8.8
		c0,0-3.5-10.1-3.2-11c0-0.9-0.4,10.7-0.4,10.7s-5.9-7.7-6.5-7.8c-0.7-0.1-6.7-2.3-6.9-3.6c-0.1-1.3-1.9,5.4-1.9,5.4l-6.1-2.9
		l-0.6,3.7c0,0-6.3-10.8-6.3-11.2c0-0.5-1.1,6.3-1.1,6.3s-5.3-3.9-5.4-4.6c0-1-1.2,3-1.2,3l-7.1-9.3l-0.9,5.7l-3.9-0.2L353,605
		l-2,3.6l-2.6-6.7l-4.1,5.1l-4.4-8.1l-2.9,4.7l-2.6-6.2l-2.6,5.2c0,0-3.1-4.5-2.9-5.1c0.1-0.7-1.3,3.5-1.3,3.5s1.5-6.6,1.3-7.2
		c-0.3-0.6-4.4,5.9-4.4,5.9l-4.2-6.2l-0.6,6.8l-2.6-6.3l1.3,9.4l-5-1.4c0,0,2-8.2,2-8.7c0-0.4-4.7,4.6-4.7,4.6l-2.9-4.8l-0.5,4.4
		c0,0-1.8,3.2-1.9,2.4c-0.1-0.9-4.1-7.8-4.1-7.8l-3,3.5c0,0-4.3-5.5-4.6-5.6c-0.2-0.2,0.1,4.9-0.6,4.4c-0.7-0.6-5.4-4.3-5.4-4.3
		s-1.5,4.3-2.2,4.1c-0.7-0.5-6.5-4.6-6.5-4.6l-0.2,4c0,0-6.8-3.5-7.1-4c-0.3-0.7-0.9,4.2-0.9,4.2s-2.9-4.9-4-5.1
		c-1.1-0.2-5.8,6.2-5.8,6.2l-2.6,4.5c0,0-5.8-5.7-6.1-6.2c-0.3-0.6-1.9-3.1-2-3.9c-0.1-0.9-1.5,6.4-1.5,6.4l-2.1,5.8
		c0,0-3.2,0.7-3.4-0.6c0-1.3-1.2-5.6-1.4-5.9c-0.3-0.4-2.6,4.2-2.4,4.9c0.3,0.9-4.3-1.4-4.3-1.4l1.7,4.3l-7.1-2.1l2.3,4.2
		c0,0-5.4-1.8-6.2-2.5c-0.7-0.8,0,6.1,0,6.1s-6.2-0.3-7-0.3c-0.6-0.3,0.7,3.6,1.3,4.1c0.7,0.5,1.8,4.2,1.8,4.2l-8-4.2l1.5,4.9
		l-4.6,0.6l-5.3-4.2l4.8,7.1l-6.1,3.1l2.2,4.4l-8.2,1.8l3.2,1.8c0,0-6.9,1.8-7.6,1.6c-0.6-0.2,2.3,3,2.3,3l-7.1,1.3l3.4,4.7
		c0,0-5.6-1.8-4.9-1.5c0.8,0.4,4.8,5.1,4.8,5.1s-5.9,1.3-6.5,1.4c-0.7,0,2.6,2.7,2.6,2.7l-6.1,1c0,0,4.3,3,3.6,2.9
		c-0.7-0.1-8,4.9-8,4.9l0,4.7l-4,4.1l3.2,3.6c0,0-7.6,7.9-6.9,7.8c0.6,0,6.9,0.3,5.6,0.5c-1.3,0.3-5.1,6.4-5.1,6.4l3.4,1l-7.6,8.5
		l5.3-1.6c0,0-3.1,6-2.4,6c0.7-0.2,4.7-0.3,4.7-0.3l-5.9,9.5l3.6-2.3l-3.4,9.6l4.5,0.8l-4.4,9.1c0,0,7-3.6,6-3.8
		c-0.8-0.1-6.2,10.9-6.2,10.9s5-1.2,5.6-1.9c0.6-0.7-4.7,4.4-4.7,4.4s10.4,2.4,10.7,2.2c0.2-0.2-5.9,4.9-5.2,4.9
		c0.6-0.1,6.6-2.2,6.6-2.2s-5.4,9.8-4.3,9.8c1.1-0.2,7.4-5.7,7.4-5.7s-8,10.4-7.4,10.2c0.6-0.3,8.1-5.5,8.1-5.5s-3.9,6.8-2.9,6.5
		c1.1-0.2,7.1-2.8,7.1-2.8l-1.7,6.9l5.5-2.3l-4.4,9.1l5.8-4.2l-3.8,10.9l4.5,1.5c0,0-1.2,3.6-0.3,3.7c0.9,0.2,6.1-1.6,6.7-1.8
		c0.6-0.3,8-5.2,8-5.2l-2.2,5.5c0,0,5.6-4.4,6.6-4.7c1.1-0.3-1,4.7-0.5,4.3c0.6-0.5,6.5-3.2,7.6-3.8c1.1-0.6,5.1,1.5,5.1,1.5
		l11.6-2.9L243.9,774.5z M1516,1991.5c-4,0.7-5.1-1.5-7-3.1c-2.2,1.3-0.8,5.6-2.9,6.8c-3.5,0-6.5-0.5-8.1-2.5
		c-0.9,2.5-0.6,6.3-0.6,8.5c-1.5,0.2-2.9,0.2-4.3,0.4c-1.3-0.9-1.3-2.8-3-3.4c0,3.2,0.2,11.4,1.1,15.2c-4.5,3.3-10,5.5-12,11.3
		c-5.5,3.9-9.9,8.9-12.3,15.5c-4.3,2.4-10,11.9-16,14.6c-2.3,1-4.6,0.6-5,3.1c-0.1,1.8,1.5,3,2.3,4c-1,0.9-3.7,0.3-3.5,2.4
		c4.1,7.4,9.2,14.6,13.8,20.8c4.6,6.3,7.5,11,13.1,16.2c7.4,6.8,13.9,10.6,22.9,15.5c-0.8,4.8-3,11.9-1.9,18
		c0.2,0.7,1.1,1.7,1.3,2.7c1.7,5.3,1.8,12.8,7.3,13.3c2.2-1.6,3-4.7,4.7-6.9c5.6,3,7.5,10.1,15.1,11c1.6-6.1,3.6-12.8,2.1-19.5
		c-1.5-6.5-7-9.5-9.2-13.6c13.1,3.3,30.4,1.1,45.3-2c2.2,3.8,3.9,7.8,7.8,9.3c1.4-1.5-2.5-1.8-1-3.7c7.5,0.5,10.8,6,16.1,8.9
		c0.1-1.5,0.1-4.4,1.6-5.7c2.2,0.7,4.1,2,5.4,3.8c6.9-3.1,13.7-3.7,19.3-7.2c7.6-4.6,9.3-12.4,13.7-19.7c1.5-9.5-2.2-21.4-9-25.7
		c-1.9,0.4-6.1,0.6-7.6-1c10.2-4.3,21.5,4.2,27.6,7.8c5.2,3.2,10.8,6.5,15.6,8.7c9.2-10.9,12.3-38.7,3.4-52.4
		c-12.9,3.2-25.6,12-38.2,14.3c-3.9,0.7-5.7-1.2-7.7-3.2c2.8-0.9,6.3-1.4,10.1-1.5c6.4-5.5,11.6-10.5,12.2-19.5
		c0.4-8.2-3.5-18.8-9.7-24.1c-3.2-2.7-13.3-7.5-17.5-7.7c-5.2-0.5-11.6,2.1-14.9-3.3c0.4-1.6,2.4-1.7,2.6-3.6
		c-3.8,1.3-8.7,5.7-12.2,1.5c-0.3-2,2.8-1.2,2.6-3.2c-3-0.2-7.4,5-10.6,1.4c-0.6-2.3,1.9-2.1,1.7-3.9c-2.6,1.6-9.4,4.7-12.6,1.5
		c0-1.5,2.3-2.5,0.9-3.9c-1.6,1.8-6.8,4.2-9.8,1.7c-1-0.8,0.1-2.1-0.2-3.5c-1.6,3.5-9.5,5-8.7-0.6c-2.4,2.2-6.3,4.4-9.4,1.9
		c-0.4-1.7-0.2-1.3-0.6-2.8c-2.2,1.3-2.4,4.3-4.3,5.8c-3.6-0.4-5.3-3-7.1-5.4C1517.8,1987.4,1517.4,1989.8,1516,1991.5z
		 M1155.4,2095.1c-4.5,11,23.4,45,6.4,40.5c-14.6-3.9-29.9-8.5-43.3-8.3c-16.5,0-81.9,22.2-92.6,4.1c-5-8.5,14.5-23.8,5.7-33.7
		c-3.5-3.9-30.8,1.2-31.1-1.6c-0.6-7.3,20.2-8,10.9-15c-7.6-5.9-8,12.8-19.4,8.6c-3.9-1.4,5.4-17.7-7.2-16.9
		c1.8-0.2-2.8,8.2-2.8,8.6c-0.4,12.8,7.8,9.4-6.1,4.8c-9.5-3.2-9.9,2.2-2.9,8.7c10.5,9.7,5.6,4.4-0.8,7.1c-22,9,11.5,10.5,10,8.4
		c-4.8-6.8-5.8,10.3-1.2,10.7c5.3,0.3,8-9.7,8.5-9.9c1.6-0.8,11,1.2,10.9,1.2c17.1,0.8,13,2.8,10.1,8.3
		c-12.4,24.7-12.8,11.8-31.5,1.9c-10.4-5.3-19.1-2-29.2-3.2c-12.5-1.5-3.2-5.2-14.2-5.2c-4.6,0-39.5,2.8-43.7,11.5
		c-11.7,23.6,53.7,58.8,74.3,58.8c24.3-0.2,25.3-13.3,39.9,4.3c11.3,13.7,2.9,19.7-2.8,25.1c0.2-0.2-1.4-8.9-4.4-9.6
		c-13.6-3.2,3.7,5.2-6.4,8.4c0.1-0.2-6.7-4.4-6.9-4.4c-19.9-4.8,4,12.9,4,13c-0.7,3.6-8.8,3.8-9.7,4.4c-23.9,17.2,13.9,5,14.2,5.1
		c2.9,2.5-12.3,16.9-6.1,21c7.4,4.8,9-17.2,13-16.6c6.2,1.1,3.6,20.2,11.3,14c8-6.5-7-11.7-3.2-20.3c2.6-5.5,22.7-8,26-16.8
		c1.1-3.2-3-5.8-4.4-9.6c-4.4-10.7-1.7-11.9,10.5-11.5c33.9,1.1,84.3,20.3,123.3,1.1c18.7-9.3,16.8-11.2,27.1,4.8
		c13.1,20.2,18.4,25.4,34.7,18.3c33.3-14.5-6.9,6.3,4.1,13.1c-1.5-1,11.7-5.7,9.7-4.3c10.1-6.9,7.1-7.3,6.8,4.3
		c-0.2,17.2,5.4,6.3,7.8-2.7c4.2-16.9,1.7-11,16.5,0c32.3,24-11.4-24.5-11.6-26.6c-0.7-8,21.7-17.5,15.8-25.3
		c-5.4-7.3-19.9,15.6-20.2,15.7c-3.3,1.9-33.1,7.7-34,7.2c-6.3-3.7-6.1-30.5-5.5-31.2c4.8-6.8,38.4-11.3,43.7-11.5
		c26.3-0.9,61.7,16.5,99.1,3.7c31.1-10.5,42.5-53.4,32.7-73.9c-17.4-35.5-48.1-45.9-72-31.3c-8.6,5.1-35.2,35.9-41.3,38.5
		c-5.4,2.5-41.7-2.6-22.7,4.8c34.7,13.3,64-51.3,94.8-38.2c29,12.3,41.5,52.5,9.8,73.4c-31.3,20.6-69.5-6.1-100.6-5.8
		c-29.3,0.3-38.3,8.6-54.3,6.5c-5.1-0.7-22.3-27.6-20.1-32.9c-2.6,6.4,33.7-15.2,31.2-14.6c-17.5,4.2,21.1,8.3,22.2-1.1
		c0.8-6.9-21.8-2.6-26.6-8.4c-14.8-17.1,12-36.8-7.3-33.2c-6.4,1.1,2.5,22-6.5,24.4c-7,1.9-14.5-18.3-22.6-11.4
		c-8.5,7.1,17.7,10.1,16.5,16.2c-0.6,3.9-14.2-0.6-10.9-1.2c-15.4,2.8-9.8,9.4-1.2,10.7c12.6,1.9,8.4-4.6,3.7,0.5
		C1175.7,2087.8,1160.1,2083.9,1155.4,2095.1z M2141.1,1208.8c-1.1-0.9,5.4-3.6,2.6-4.8c-1.3-0.6-8.4,3.3-8.9,3.1
		c-2.5-1.7,5.6-3.1,1.2-3.9c-2.1-0.5-5.2,3.1-5.9,2.9c-0.4-0.3,0.5-2.3,0.6-2.5c-1.9,0.4-8.9,2.5-11.2,3.3c10-3.7-2.6,2.1-2.9,1.9
		c0.3,0.2,1.5-4,1.9-4c-3-0.2-5.8,3.9-11,4c-0.1,0,0.4-1.5,0.6-1.6c-1.2,0.3-4.2,2.3-6,2.2c-1.2-0.1-0.8-1.7-2.4-1.3
		c-4.4,1.2-7.8,5.9-10.3,6.2c0,0,0.3-2.1,0.6-2.3c-1.3,0.4-6.7,3.6-6.6,3.6c-0.1,0-1.1-1.7-1.7-1.3c-2.6,1.5-2.6,6.6-5.5,5.7
		c-0.6-0.1,0.3-3.5-1.1-3c0,0.2-3.2,5.1-5.6,5.1c-0.2,0-0.4-2.3-1.7-1.3c-1.7,1.4-1,4.6-3.2,6.4c0.6-0.5-3.1,1.3-3.7,1.1
		c-0.3-0.1,0-2.9-1-2.2c-2.1,1.2-3.3,7.7-5.5,7.2c-0.4,0,0-3.6-1.1-2.9c-1.7,1.2-2.4,5.6-4.7,6.5c-0.1,0-0.4-2.1-0.9-1.5
		c-1.1,0.9-1.3,3.2-2.7,4.1c0.2-0.1-0.6-2.3-1.7-1.5c-1.9,1.7-5.2,10.1-9,9.9c-0.4,0-0.5-2.6-1.7-2.1c-1.7,0.7-1,2.4-3.5,4.1
		c0.1,0-0.4-1.7-0.9-1.4c-0.4,0.3-2.4,4.3-5.8,5.1c0,0-1.1-1.2-2.3-0.4c-3.2,2-4.2,5.5-5.6,5.8c0.2,0-0.2-2.2-0.2-2.3
		c-0.9,0.4-2.9,3-5,3.5c-0.2,0.1-0.6-1.1-1.6-0.6c-1.6,1-2.2,3.5-4.2,4.2c-4.3,1.4-3.7,2.4-6.5,4.3c0.2-0.1,0.3-2.3,0.4-2.3
		c-1.3,0.6-3.1,3-5.7,3.6c0.6-0.1-1.6-2.1-1.9-2.1c-1.4-0.4-4.9,1.3-5.2,2c-1.2,3.2-4.1,2-5,2.7c-1.7,1.2-0.2,3.1-2.1,3.2
		c0,0-0.7-2.7-1.7-2.1c-0.3,0.3,0.5,2.6,0.2,3c-0.5,1.4-4.6,1.7-5.1,2.1c-0.7,0.4,0.7,2-0.6,2.3c0.4-0.2-1.2-1.3-1.5-0.5
		c-1.1,2.3,0.4,5.9-0.8,7.5c0.4-0.4-1.7-2.1-1.7-2.1c-1.9,4-1.2,8.8-2.1,10.7c-0.1,0.3-2.3,0-2.3,0.3c-0.9,5.9,3.5,12.1,4,16.8
		c0.9,10-7.5,27.4-17.6,34.1c-0.7,0.4-2,0.3-2.9,1c-5.9,4.5-3.9,12.7,3.7,13.9c1.2,0.3,1.7-0.8,2.9-1c8.7-1.6,23.3,2.4,29.6,2.6
		c5.4,0.1,10.2-0.3,13-0.5c2.2-0.1,9.2-2.6,10.7-0.2c0.6,0.8-11,10.7-9.5,13c1.3,1.7,4.6-2.9,7-0.8c0.2,0.3-1.4,2.5-1.3,2.5
		c0.9,0,5.2-2.5,8.2-2.4c1,0,1.6,1.6,2.5,1.3c1.6-0.4,15.3-8.2,17.1-6.9c-1.5-1-0.4,4-1.2,3.9c3.4,0.2,8.3-6.5,10.7-0.2
		c-0.1-0.5-1.4,1.6-1.4,1.6c-1.6,1.9-2,3.9-1.6,6.9c0.1,0.8,1.2-3.3,2.1-1c0.4,0.9-3.2,2.9-1.2,3.9c3.7,1.7,4.8-5.4,7.6-1.5
		c3.4,4.6-9.4,2.9-0.3,3.8c1.5,0.2,5.3-3,8.1-3.6c18.5-4.6,25.6-21.1,43.5-27.4c4.7-1.7,9.9-0.8,12.3-0.5
		c11.5,1.9,29.7-4.3,37.6-1.1c2.6,1-1.5,2.2-2.8,3.3c-1.5,1.4-4.6,6.5-4.6,7.9c-0.1,1.5,2.8-1.7,3.7-1.1c0.6,0.3-1.3,1.6-1.3,1.6
		c-3.5,5.9,4.4-0.1,7,1.6c0.3,0.3,0.1,3.1,0.4,3.1c10.9,1,19.1-5.8,23.6-9.7c3.3-2.8,6.3-2.8,11.1-4.8c2-0.8,2.2-2.9,4.3-3.5
		c4.6-1.1,6.6-1.6,8.9-3.2c-0.5,0.5-1.8-0.7-0.8-1.3c0.7-0.4,3.6,0.4,4.5-0.4c0.4-0.4-0.4-2.4-0.2-3c0.5-1.8,3.5-1.8,5-3.5
		c0.5-0.4-1.1-2.1-1-2.1c0.7-0.6,2.6,0.2,3-0.3c0.8-0.6-0.3-1.7,0.7-2.3c2.2-1.3,4.1,0,5-2.7c0.2-0.4-2-0.2-0.9-1.4
		c1.4-1.3,4.7-1.3,6-2.8c0.6-0.6-0.9-3.2-0.3-3.8c0.9-1.1,4-0.7,5.1-2c0.5-0.4-0.4-2.4-0.2-3.1c0.6-1.2,4.6-2.2,4.5-1.9
		c1.5-2.2-2.5-1.1-1.9-2.7c1-2.2,4.1-0.1,4.6-1.3c0.1-0.4-2.6-2.8-2.6-2.8c0.7-1.2,2.7,1.2,3.7-1c-0.6,1-1.4-5-0.6-6.1
		c0.2-0.3,2.9,0.2,3-0.1c0.4-1.6-1.6-2.4-1.8-3.7c0,0,2.2-0.4,2.3-1c0,0-1.8-0.8-1.7-1.4c0.2-1.6,3.2-1.2,3.7-2.6
		c-0.2,0.4-1.8-1.2-1.8-2.1c0-1.8,3.1-6,3.1-7.8c0,0-2.4-1-2.4-1.3c-0.3-0.6,0.7-5.6,1.1-3.9c-0.6-2.3-2.4-2.2-2.6-3.5
		c0,0,2.2-0.1,2.2-0.3c0.1-1.8-3.1-4.9-2.9-6.5c0.1-0.4,2.2,0,1.4-1.5c-0.5-1-3.8-0.3-4.7-1.9c0.3,0.8,1.3-1.8,1.3-2.2
		c0-2.2-1.2-2.4-1.9-2.9c-0.3-0.3,0.2-2.1-0.2-2.2c-0.9-0.8-1.7,0.5-2.4-0.6c-0.7-1.3,1.5-1.9,1.3-2.3c-0.6-1.1-4.2-1.9-4.1-3.5
		c0-0.3,2.3-0.1,1.3-1.6c-0.6-1-2-0.3-3.2-2c-0.7-0.9-0.2-2.6-1.2-3.6c-1.5-1.8-5.9-3.6-7.4-5.3c-1.4-1.4-2.4-1.3-3.5-2.7
		c-0.2-0.4,1-1.3,0.6-1.6c-0.5-0.4-2.8-0.1-3.9-1.2c-1-0.7-1-3.5-1.9-4.3c-0.7-0.6-3.2-0.4-3.9-1.2c-0.4-0.1,0.8-1.4,0.5-1.4
		c-0.5-0.3-4.4-0.5-5.5-1.7c-0.5-0.8,1.3-1.6-0.2-2.3c-2.4-1.1-4.2,0.2-5.5-0.9c-0.6-0.6,2.6-1.4,1.3-2.4c-0.6-0.6-5.7,1.5-5.5-1
		c0,0.2,3-1.2,2.1-1.7c1.8,1.2-5.8,0-6.2-0.9c-0.3-0.4,1.1-2.2,0.4-2.4c-0.8-0.2-2.8,1-5.3,0.6c0.2,0-1.7-2.5-3.2-2.8
		c-0.9-0.1-2.5,0.7-3.1,0.3c-2-1.2-2.2-4-2.7-4.2c-4.3-1.4-9.2,2.3-10.8-0.6c0.4,0.9,3.3-1.3,2.1-1.8c1.5,0.6-5.5,1.8-5.2,2.1
		c-0.1-0.2,1.3-2.5,1.3-2.5c-3.1,0.3-5.2,3.3-5.9,2.9c-1.7-1.3,4.8-3.5,1.2-4c0.1,0,0,0.7,0.1,0.7
		C2143.7,1206,2142.8,1209.8,2141.1,1208.8z M1516.4,901.4h187h36.8l-15.1,32.9l-351.6,762.9l-6.3,13.7h-15.3h-158.9h-49.6H984.5
		h-15.2l-6.4-13.7L611.3,934.2l-15.2-32.9H633h186.9h15.2l6.3,13.6l319.3,684.1h14.8l319.3-684.1l6.4-13.6H1516.4z M1703.4,924.6
		h-187l-325.6,697.6h-45.2L819.9,924.6H633l351.5,763h158.8h49.6h158.9L1703.4,924.6z M1170.1,1356.4c0,0,0-0.1-0.1-0.1
		C1170.1,1356.3,1170.1,1356.4,1170.1,1356.4z M1169.1,1356.3c0.4,0,0.7,0,0.9,0C1170,1356.2,1169.7,1356.2,1169.1,1356.3z
		 M836.2,722c0-3.2,2.6-5.8,5.9-5.8h100.3l-27.2-28.8c0,0,7.8-0.2,27-0.1c63.1,0.6,126.1,0.3,189.2,0.7c18.2,0.2,37.9-0.7,57.9-0.8
		v-62.6c0-12.9,10.6-23.3,23.7-23.3c13.1,0,23.8,10.4,23.8,23.3v64.4c45.8,4.7,86.9,20.4,105.9,68.8c20.1,51.2,8.6,104.5-29.2,144.5
		c-21.6,22.8-48.1,34-76.7,39.8v70.7v5.1c1.4,0,2.6,0,3.9,0c58.8,5,117.4,32.4,109.5,100.9c-6.3,53.7-43.9,86.1-99.1,89.5
		c-4.7,0.4-9.5,0.5-14.3,0.8v76.8c0,12.8-10.7,23.3-23.8,23.3c-13.1,0-23.7-10.4-23.7-23.3v-75.4c-38.4,2.1-71,11.5-81.6,61.9
		c-8.9,42.6,10,91.1,61.4,84c-80.9,26.3-98.8-82.7-75.3-135.3c15-33.5,46-53.6,82.7-59.5c3.5-0.7,7.8-1.2,12.8-1.4v-54.1v-17.4
		c-0.6,0-1.3,0.1-1.8,0.1c-70.1,2.6-163.8-31.8-149.7-117.5c9.6-78.3,86.1-86.1,151.5-92.6v-9.7V758.5c-57.2-1-114.6-1-171.8-1.1
		c-12.1,0-101.9,0.1-101.9,0.1l27.4-29.6H842.1C838.8,728,836.2,725.2,836.2,722z M1189.3,947.4c-2.9,0.2-5.7,0.3-8.5,0.5
		c-23.5,1-96.8,11.7-67.3,51.4c15.2,20.7,46.1,22.8,75.8,21.5v-6.1V947.4z M1236.8,871c49.8-21,67-109.3,1.5-111.3
		c-0.5,0-0.9,0-1.5,0v96.7V871z M1236.8,1157.4c23.2-2,44.7-6.6,50.4-19.9c18.9-43.4-16.1-51.9-50.4-52v23.2V1157.4z M1201.1,687.2
		c8,0.1,15.9,0.2,23.8,0.8v-63.4c0-6.5-5.4-11.7-11.9-11.7c-6.5,0-11.9,5.2-11.9,11.7V687.2z M1201.1,1020.2
		c8.4-0.5,16.3-1.3,23.8-1.7v-5.2v-69v-69.6v-15.2v-100c-8-0.3-15.9-0.4-23.8-0.6v106.8v11.7v69.4v67.5V1020.2z M1201.1,1285.8
		c0,6.3,5.4,11.5,11.9,11.5c6.5,0,11.9-5.2,11.9-11.5v-76.5v-51v-50.3v-22.4c-8.8,0.5-16.9,1.2-23.8,1.9v19.1v52.7v50.4V1285.8z
		 M1015,719.7c0,10.2,8.3,18.2,18.5,18.2c10.2,0,18.5-8.1,18.5-18.2c0-9.9-8.4-18.1-18.5-18.1C1023.3,701.6,1015,709.8,1015,719.7z
		 M1962.1,434.3c-20.2,0.1-39.4-16.1-61-3.8c0.8,10.1,9.9,9.1,18.8,8.2c-0.9,5.2-10.7,4.5-14.6,7.7c-1.2,11.7-15.9,14.3-16.9,26
		c-8.2-9-10.2-32.8-27.2-25c-2.8,14.8-13.2,24.1-6.8,45c1.3,4.6-8,1.9-8.5,5.3c1.9,8.9,8.5,0.3,13.3-1c8.4,1.9,10,13.2,15.4,19.2
		c1.4-0.2,2.6-0.4,3.9-0.7c1.9-2.6-1-7.7-4.1-8.3c0.2-1.7,3.2-1.6,5-2.1c-0.6-6.4-5.8-6.5-8.5-10.2c0-1.9,3.9-1.2,3.5-3.2
		c-0.4-5.1-6.7-2.3-7.8-6.4c-0.2-2,6.6,1.1,4.5-4.6c-3,0.6-4.2-1.4-7.9,0c-0.3-4.5,2-7.4,3.5-10.8c6,8.6,8.6,22.2,16.9,28
		c13.1-1,15.7-9.2,23-14.1c4.9,4.3,10.1,8,14.3,13c0,4.7-1.7,8.3-1.7,13.1c0.4,2.9-3.5-1.2-6.5,1.1c2.9,10.4,5.4,21.7,17,20.2
		c2.4,5.5,1.3,8.7,3.5,12.3c1.7-0.3,3.5-0.6,5.2-0.9c3.1-5-3.1-7.2-3.5-12.3c4.2-2.1,13.8,1.8,18.2,4.7c1.2-1.8,0.7-4.7,0-7.8
		c-6.5-1.5-13.9-1.6-19.6-4.4c0-5.5,6.2,0.1,5.9-4.9c-0.3-5.9-6.7-2.4-9.5-0.9c1.4-5.4,0.5-12.1,2.4-17.3
		c22.9,1.6,53.9,29.2,75.2,9.3c-2.2-12.7-4.2-22.8-2.7-30.5c6.5,3.1,10.2,10,13.7,17.1c4.1-0.1,5.1-2.4,5.8-4.9
		c-3-4.8-8.5-6.1-10.2-12.4c1.7-3.1,8.1,0.1,9.7,2.1c3.7,0.5,2.2-2.8,4.8-3.3c0-2-1.7-1.9-1.9-3.5c-5.7,0.5-16.2-0.6-17.9-9.8
		c-9.2-6-18.9-11.6-28.4-17.2c-3.4,0.3-5.5,1.4-4.5,4.6c-5-1.8-9-5.2-14.5-6.5C1962,441.5,1962.5,438.2,1962.1,434.3z M1972.4,462.2
		c-0.1-2.5,0.1-4.3,1.7-5.5c0.2-2.2-1.4-2.2-3-2c-5.8-1.6-7.8-8-15.9-6.4C1960.1,454,1966.1,458.4,1972.4,462.2z M1998.3,479.7
		c1.7-1.5,2.2-3.6,1.5-6.7c-5.6-0.8-12.9,0.9-15.4-3.9c0.4-4.9,5.1-1.7,8.9-2.7c3,0.7-8.6-3.2-9.3-7.5c-3.9,2.2-1.3,8.7-4.8,11.1
		C1983.7,475.6,1991.3,477.3,1998.3,479.7z M1396.8,127c0,0-1.4,4.3-1.6,6.9c-0.2,2.6-0.4,8.4-1,14.9c-0.4,6.5-4,15.9-2.3,23.8
		c1.8,8.1,1.2,11.7,3.9,14.8c2.7,3,14.4,14.7,15.7,16.2c1.2,1.3,5.2,3.4,7.1,2.9c2.4-0.7,5-0.4,5.6-2.3c0.6-1.7,1.3-3.8,1.3-3.8
		s5.7-0.8,5.7-2.7c0.2-1.8,0-5.2-0.7-6.7c-0.6-1.3-2.2-2.7-2-4.8c0.1-2.2,2.4-3,3.4-2.2c1,0.9,7.8,3.5,8.7,3c1.1-0.4,7.7-1,8.5-2
		c0.9-0.9,1.7-2.5,3.4-2.3c1.6,0.1,2.6,1,4.8,0.8c2.1-0.1,2.8,1.3,2.5-1.4c-0.2-2.6-1-4.8,0.9-5.9c2-1.2,5.8-1.2,6.5-0.6
		c0.7,0.8,0.8-0.4,1.5-3c0.8-2.4,2.5-3.1,1.5-5.6c-0.9-2.3-2.9-7.5-2.9-7.5s6.3,6,7.9,5.8c1.6,0,2.4,0.3,3.5-2.9
		c0.9-3.1,1.9-0.9,2.6-6.4c0.7-5.3-0.7-4.9,2.7-9.3c3.2-4.2,3.7-2.7,5.3-6.7c1.6-3.8,0.1-4.6,0.1-4.6s1.5-0.1,2.6-2
		c0.9-1.7,1.9-2.9,0.3-4.6c-1.4-1.7-3.3-1.3-2.4-3c0.9-1.7,3.3-2.2,0.9-5.2c-2.4-3-2.2-3.6-1.1-5.3c0.9-1.7,2.6-2.5,1.6-4.1
		c-0.9-1.6-3.1-3.6-4.1-3.4c-1.1,0.1-7.4-1.3-8.8-0.9c-1.4,0.3-43.2-2.2-44.9-1.6c-1.6,0.7-4.8,0.7-6.2,0.8
		c-1.3,0.1-11.4-0.6-12.6-0.4c-1,0.2-5.2-1.2-5.2-1.2l-6.5-4.9l7.1,0.3c0,0-4-5.5-5.1-6.9c-0.9-1.5-3.2-3.2-4.5-4.1
		c-1.3-0.9-4.1-1.9-5-3.3c-0.9-1.3-2.2-2.5-1.9-3.2c0.2-0.9,2-2,0.7-3.2c-1.3-1.2-7.8-1.9-8.6-1.7c-0.9,0.3-14,0.9-14,0.9l-12.3-4.3
		l-20.9-7.6l-13.3-3.3l-13.4-2.3l-13.8-1.3c0,0-1.1,0.4-1.3,1.1c-0.4,0.9-0.8,2.6-0.4,4.8c0.4,2.2,2.2,6.2,2.9,7.5
		c0.6,1.4,4.8,6.7,5.7,7.8c1.1,1.2,5.9,4.2,6.4,4.9c0.5,0.9,4.3,5.9,5.1,7c0.7,1.1,4.5,4.3,6.8,5.5c2.2,1.2,7.7,3.7,9.1,4.4
		c1.2,0.7,3.9,0.8,5.4,2.3c1.5,1.4,0.9,1.6,4.6,3.8c3.5,2,8.2,4.8,9.9,5.2c1.9,0.3,4.3,0,4.3,0s-0.6-1.9,0.8-2
		c1.3-0.2,2-1.2,4.6,0.1c2.5,1.1,6.5,4.1,7.8,4.5c1.3,0.3,2.5-0.6,2.3-1.5c-0.2-0.8,0-2.9,0-2.9s11.5,7,12.5,7.5
		C1385.3,120,1396.8,127,1396.8,127z M791.1,616.8c-0.9,2.3-5.4,8.8-5.3,9.1c0,0.1,11.3,6.2,9.2,8.8c-1.6,2.3-10.3,0-15.3,1.1
		c-3.9,0.7-7.6,4.4-12.2,6c-7.8,2.8-21.6,4.9-34.5,3.3c-2.6-0.4-5.7-3.2-8.4-3c-5.3,0.5-4.6,5.4-10.6,6.2
		c-5.8,0.7-32.9,1.1-27.7-8.1c2.8-5,13,2.7,18.4,0.6c0.2,0,5.4-4.3,4.5-5.2c0-0.1-7.7,1.2-9.9,0.7c-5.6-0.9-8.4-6.3-11.5-6.6
		c-2.5-0.2-5.7,3-8.4,3.9c-8.7,2.4-26.1,2.3-31.4-5.1c-3.3-4.5,16.3,2,19.2-0.2c7-4.9-3.7-15.4-2.6-24c0.4-2.4,3.8-3.2,4.5-6
		c0.7-2.6,0.1-9.5-0.9-12.7c-1.6-5.3-6.1-8.2-7-12.8c-0.3-1.4,0.6-6.6-0.1-7.4c-1.5-1.6-3.2,2.4-6.1,2.3c-3.9-0.2-8.4-7-11.5-11.1
		c-1.2-1.6-3.8-3.4-3.9-3.6c-0.6-2,1.5-1.9,1.6-3c0.2-4-6.4-9.4-3.2-12c2-1.7,4.2,2.3,7.7,2.2c2-0.1,5.9-3,5.9-3
		c0.1-3.2-20.6-6.1-23.7-8.1c-2.8-1.6-5.2-5.7-5.4-7.3c-1-5.1,2.5-6.8,3.7-11.3c1.7-5.9,1.1-12.4,2.9-18.7c1.4-5.1,2.8-11.6,5.2-16
		c2.2-4,6.3-6.3,7.6-9.7c0.4-1.6,1.3-10,1.4-11.4c0.2-2.9-0.4-9-1.6-13.4c0-0.2-0.1-1.3,0-1.4c2.3-3.3,12.6,10.4,12.4,10.4
		c1.1,0.3,5.9-1.4,9.2-1.6c7.4-0.2,15,1.3,21.5,3.7c-0.4-0.1,5,2.2,5.3,2.2c2.4-0.7,3.8-6.7,4.5-7.5c1.4-1.9,7.1-7.8,10.6-8.4
		c11-1.7,15.7,6.5,14.9,16.4c-0.5,4.7-4.9,11.2-4.5,12.1c0.7,1.5,9.5,2.2,12.2,2.7c19.4,5.2,34.6,15.5,46.2,28.2
		c4.3,4.8,10.1,11.3,12.4,17.2c2.8,7.7,3.8,18.1,5.5,26.9c2.9,13.8,6.6,22.3,5.8,37.5C797,590.3,795.3,605.8,791.1,616.8z
		 M660.6,484.4c-1.5,0.9-1.9,2.5-2.4,3.7c-1.7,5-1.1,6.8,5.4,5.9C672.1,493.1,669.6,479.4,660.6,484.4z M1042.7,424.4
		c1.3-9,17.2-3.5,17.4-13.3c-28.2-13.4-47.1-36-73.3-51.3c-32.2-4.6-70.7-10.1-94.6,11.4c-4.8,4.2-5.8,12.3-9.6,17
		c-5.3,6.7-13.6,9.3-17.4,15.2c-4.7,7.4-3.2,16.5-7.8,24.7c-4.2,7.8-13.5,12.2-13.5,19c0.2,7.3,9.5,12.1,11.7,17.2
		c-6.7,8.7-14.7,15.9-13.5,32.3c13.1,6.9,14.9,4.2,30.9,3.7c6.2-4.6,5.8-15.9,13.5-18.9c13,23.9,73.9,24.6,98.4,9.6
		c-12.5,16.4-8,54.5,21.3,43.6c1-24.3,23-28,21.3-55.1c11.6-1.3,15.7-9.8,19.2-19.1c5.4,5.5,3.7,17.9,3.9,28.5
		c10.7,6.8,24.6,8,36.7,0c3.8-14.4,1.6-34.4-3.8-45.6c9.3-8.2,26.5-5.7,28.9-17c3.8-17.9-20.6-22.5-42.5-17.2
		C1061.6,415,1057.7,425,1042.7,424.4z"/>
</g>
</svg>
